<?xml version="1.0" encoding="UTF-8"?>
<svg version="1.1" xmlns="http://www.w3.org/2000/svg" width="3000" height="2000">
<path d="M0 0 C23.43 0 46.86 0 71 0 C71 122.43 71 244.86 71 371 C47.57 371 24.14 371 0 371 C-0.33 363.41 -0.66 355.82 -1 348 C-2.381875 349.27875 -3.76375 350.5575 -5.1875 351.875 C-8.32603439 354.77931541 -10.93501119 356.62815653 -15 358 C-15 358.66 -15 359.32 -15 360 C-48.76219673 376.74442016 -85.65579868 381.87116292 -122.09619141 370.11401367 C-158.9610221 357.52703146 -188.16548662 331.89349363 -205.90478516 297.25439453 C-224.34211855 259.30291514 -226.31418314 214.10858435 -212.83691406 174.35302734 C-205.49819938 153.71984994 -194.02971091 135.92621998 -179 120 C-178.32710937 119.26265625 -177.65421875 118.5253125 -176.9609375 117.765625 C-152.20448475 91.6183603 -116.38224201 79.08858409 -81 78 C-52.46364693 77.74384863 -26.26002324 85.96525895 -4 104 C-3.01 104.99 -2.02 105.98 -1 107 C-0.67 71.69 -0.34 36.38 0 0 Z M-123 167 C-123.91265625 167.79277344 -123.91265625 167.79277344 -124.84375 168.6015625 C-139.69995848 182.30979123 -148.29563289 202.71177867 -149.27734375 222.671875 C-149.96238472 245.90035617 -142.52087903 266.64660216 -127 284 C-112.11703929 299.34246893 -93.13436916 307.67760563 -71.8125 308.3125 C-48.83921009 307.87229325 -29.02622425 299.28587952 -12.41015625 283.55078125 C-5.33361218 276.0613432 0.35207693 268.03041538 0.41992188 257.50097656 C0.42839142 256.77489197 0.43686096 256.04880737 0.44558716 255.30072021 C0.46887609 252.91384071 0.46998101 250.52760928 0.46875 248.140625 C0.47585847 246.46921536 0.48355847 244.79780814 0.49182129 243.12640381 C0.50524895 239.62619241 0.50684352 236.12620646 0.50097656 232.62597656 C0.49509391 228.16286621 0.52561965 223.70084873 0.56609344 219.23794937 C0.5920795 215.78556597 0.59483783 212.33344152 0.59120178 208.88097382 C0.59288407 207.23688775 0.60243994 205.59278855 0.62034607 203.94879913 C0.74602057 190.98027863 -1.47254661 181.84135943 -10.6875 172.3125 C-11.2129541 171.75997559 -11.7384082 171.20745117 -12.27978516 170.63818359 C-26.63753246 155.89837347 -47.28229774 147.16996979 -67.82519531 146.70703125 C-88.78561941 146.54647649 -107.31807288 152.66390991 -123 167 Z " fill="#76C059" transform="translate(1193,821)"/>
<path d="M0 0 C23.43 0 46.86 0 71 0 C71 122.43 71 244.86 71 371 C47.57 371 24.14 371 0 371 C-0.33 363.41 -0.66 355.82 -1 348 C-2.216875 349.155 -3.43375 350.31 -4.6875 351.5 C-26.60527384 370.94041165 -56.95614361 378.27318007 -85.671875 376.75390625 C-115.98955479 374.6940206 -144.64311587 364.896605 -168 345 C-168.86753906 344.27167969 -169.73507812 343.54335937 -170.62890625 342.79296875 C-195.41006817 321.26942436 -211.51036303 292.14301294 -218.25 260.125 C-218.41290527 259.35333496 -218.57581055 258.58166992 -218.74365234 257.78662109 C-226.72400574 218.20712133 -218.70517322 175.30069873 -196.50390625 141.6171875 C-192.99371836 136.46062829 -189.11530273 131.68391105 -185 127 C-184.24332031 126.09894531 -183.48664063 125.19789063 -182.70703125 124.26953125 C-161.41115919 99.63857971 -129.20709816 83.61508245 -97 80 C-95.54980469 79.83564453 -95.54980469 79.83564453 -94.0703125 79.66796875 C-69.45373971 77.27025062 -44.0311718 80.25004171 -22 92 C-20.96230469 92.5465625 -19.92460937 93.093125 -18.85546875 93.65625 C-11.81312139 97.55390137 -7.31833874 101.3836989 -1 107 C-0.67 71.69 -0.34 36.38 0 0 Z M-128.2734375 171.9609375 C-143.78974246 190.28562345 -150.42409828 212.23338206 -149 236 C-146.44661441 257.68213861 -136.04038014 277.67480788 -118.9296875 291.4765625 C-100.03009816 305.09337506 -79.27931412 310.66419871 -56.1875 306.9375 C-33.36651173 302.46981108 -15.67743677 289.89344697 -2.8203125 270.79296875 C-0.06262194 266.56174826 0.16793038 263.71581979 0.20874023 258.77148438 C0.21852402 258.02647675 0.2283078 257.28146912 0.23838806 256.5138855 C0.26837319 254.04052516 0.28974417 251.56721941 0.30859375 249.09375 C0.31845149 247.82441368 0.31845149 247.82441368 0.32850838 246.5294342 C0.36112661 242.04405388 0.38556309 237.55869743 0.4050293 233.07324219 C0.42279157 229.37171456 0.45752518 225.67095607 0.50756836 221.96972656 C0.56801838 217.4934082 0.59854001 213.017799 0.60820198 208.54109192 C0.61672167 206.84112808 0.63545312 205.14118137 0.6649456 203.44145203 C0.82632974 193.60514764 0.51800086 185.95290554 -6 178 C-6.72703125 177.04867187 -7.4540625 176.09734375 -8.203125 175.1171875 C-22.395501 159.57057714 -41.52903412 148.19904357 -63.02587891 146.87524414 C-88.09542427 145.99189353 -110.84291177 153.34365257 -128.2734375 171.9609375 Z " fill="#76C058" transform="translate(2097,821)"/>
<path d="M0 0 C0.99 0.99 1.98 1.98 3 3 C3.33 -4.26 3.66 -11.52 4 -19 C27.43 -19 50.86 -19 75 -19 C75 75.38 75 169.76 75 267 C51.57 267 28.14 267 4 267 C3.67 259.41 3.34 251.82 3 244 C1.865625 245.11375 0.73125 246.2275 -0.4375 247.375 C-25.42874845 269.467577 -57.8480042 273.75374523 -90 272 C-96.12631739 271.49742568 -102.03378945 270.45652596 -108 269 C-109.01513672 268.76651855 -109.01513672 268.76651855 -110.05078125 268.52832031 C-144.2960562 260.4506919 -174.92541148 237.44363252 -193.65625 207.83984375 C-209.48788535 182.1393898 -217.47566619 154.03532748 -217.3125 123.8125 C-217.31034485 123.09011139 -217.3081897 122.36772278 -217.30596924 121.6234436 C-217.1117517 80.93599276 -202.02049397 43.5268058 -173.46386719 14.4453125 C-128.48328575 -29.96513482 -50.69820517 -40.42930526 0 0 Z M-119 63 C-119.68191406 63.59039063 -120.36382812 64.18078125 -121.06640625 64.7890625 C-135.64473125 78.19769802 -144.23058493 98.59367115 -145.38671875 118.1640625 C-146.17896764 141.90752159 -138.77317975 162.27515511 -123.0703125 180.203125 C-109.48848767 194.49404109 -90.63375177 202.86040172 -71.03515625 204.203125 C-47.96354121 204.56693496 -26.33754805 196.33886462 -9.51171875 180.52050781 C-1.59528106 172.55804433 4.34511443 163.91167808 4.41992188 152.47924805 C4.42839142 151.762771 4.43686096 151.04629395 4.44558716 150.30810547 C4.46882586 147.95912509 4.46998236 145.61080499 4.46875 143.26171875 C4.4758606 141.61415857 4.4835609 139.96660084 4.49182129 138.31904602 C4.50523676 134.87188836 4.50684863 131.42495959 4.50097656 127.9777832 C4.49508962 123.58307664 4.52564315 119.18947831 4.56609344 114.79498577 C4.59207966 111.39321586 4.59483792 107.99170875 4.59120178 104.58985329 C4.5928835 102.97088657 4.60243373 101.35190645 4.62034607 99.73303795 C4.711417 90.4838079 4.34175225 82.9384464 -1 75 C-1.91652344 73.59041016 -1.91652344 73.59041016 -2.8515625 72.15234375 C-16.19108031 55.49263759 -34.86306274 45.8887025 -55.9375 43.25 C-57.62355683 43.14131204 -59.31154833 43.06108725 -61 43 C-62.78470703 42.90525391 -62.78470703 42.90525391 -64.60546875 42.80859375 C-84.98152911 42.03274672 -103.92640595 49.20752515 -119 63 Z " fill="#76C059" transform="translate(563,925)"/>
<path d="M0 0 C2.5236575 2.22652357 4.98187209 4.50664301 7.42578125 6.8203125 C8.31007813 7.64015625 9.194375 8.46 10.10546875 9.3046875 C37.60731295 35.63789809 51.68674618 72.97345909 52.71142578 110.65625 C53.15103332 149.14988466 39.46920764 186.26851779 12.93359375 214.26953125 C10.44487622 216.80089036 7.94153643 219.31582189 5.42578125 221.8203125 C4.90346924 222.36776123 4.38115723 222.91520996 3.84301758 223.47924805 C-0.35689854 227.82717883 -4.78854422 231.39454965 -9.76171875 234.8203125 C-10.88525757 235.59894653 -10.88525757 235.59894653 -12.03149414 236.39331055 C-43.66220026 258.11462208 -84.19537158 267.12812727 -122.26171875 260.6953125 C-150.1056042 255.42000904 -174.49936308 243.62332195 -195.93847656 225.21826172 C-197.28656403 224.06614995 -198.65791388 222.94131534 -200.03515625 221.82421875 C-205.69088341 217.16327364 -210.12678574 211.61970605 -214.57421875 205.8203125 C-214.97930664 205.29550293 -215.38439453 204.77069336 -215.80175781 204.22998047 C-240.30048414 172.21307581 -250.32444498 132.1040649 -245.23828125 92.18359375 C-240.49371694 59.4073689 -225.55802502 31.33819463 -202.57421875 7.8203125 C-202.02531982 7.24949951 -201.4764209 6.67868652 -200.91088867 6.09057617 C-148.19762965 -47.92223932 -56.26345294 -47.64037442 0 0 Z M-156.82421875 64.2578125 C-171.66440551 81.57634031 -175.07020398 102.74473987 -173.57421875 124.8203125 C-171.27197171 143.95206791 -159.65151445 161.35886066 -145.35546875 173.69140625 C-127.23270835 187.56346302 -105.82594411 192.19955436 -83.29248047 189.55224609 C-69.75530356 187.21961532 -55.71844501 180.03514572 -45.57421875 170.8203125 C-44.84074219 170.17835938 -44.10726563 169.53640625 -43.3515625 168.875 C-27.69509021 154.31958322 -20.0180881 133.90600363 -19.19921875 112.7578125 C-20.03841587 91.30355575 -28.84501179 72.25885804 -43.57421875 56.8203125 C-56.95968831 44.8809186 -74.49100667 36.60952289 -92.57421875 35.8203125 C-93.60869141 35.76037109 -93.60869141 35.76037109 -94.6640625 35.69921875 C-119.64904352 34.93114519 -140.20472661 46.41306479 -156.82421875 64.2578125 Z " fill="#76C059" transform="translate(1690.57421875,935.1796875)"/>
<path d="M0 0 C37.41914711 -0.78923759 71.24556032 12.74276694 98.33984375 38.44140625 C120.89179407 60.44800358 137.09889311 92.78945051 138.20898533 124.65299892 C138.20806354 125.90755918 138.20714174 127.16211943 138.20619202 128.45469666 C138.20747365 129.5110993 138.20747365 129.5110993 138.20878118 130.58884341 C138.21041803 132.93026783 138.20494424 135.27161937 138.19946289 137.61303711 C138.19918061 139.29877725 138.19933956 140.9845175 138.1999054 142.67025757 C138.20019175 147.23375793 138.19432109 151.79723188 138.18733144 156.36072612 C138.18107104 161.13465283 138.18049198 165.90858019 138.17930603 170.68251038 C138.17620063 179.71689634 138.16799791 188.75127017 138.15795654 197.78565079 C138.14677082 208.07340291 138.14127876 218.36115562 138.13626111 228.64891231 C138.12581464 249.80631439 138.107479 270.96369985 138.0859375 292.12109375 C114.6559375 292.12109375 91.2259375 292.12109375 67.0859375 292.12109375 C67.06015625 280.46796875 67.034375 268.81484375 67.0078125 256.80859375 C66.98263364 249.40753548 66.95645429 242.00650292 66.92578125 234.60546875 C66.87732574 222.86914269 66.83284897 211.13290213 66.81494141 199.39648438 C66.80187745 190.84686982 66.77479271 182.29743027 66.73132443 173.74791431 C66.70881567 169.22686022 66.69302041 164.7060211 66.69405365 160.18490601 C66.69480658 155.91662314 66.6766056 151.64881358 66.64476967 147.38065338 C66.63635348 145.82644058 66.63446332 144.27217416 66.64013481 142.71794891 C66.7013022 123.35411069 62.1987019 104.7187187 48.55419922 90.25488281 C35.84423106 77.63487398 19.84256752 72.8365434 2.33178711 72.80419922 C-15.16772181 73.08908721 -29.67073238 79.54232993 -41.9140625 92.12109375 C-42.5740625 93.11109375 -43.2340625 94.10109375 -43.9140625 95.12109375 C-44.5740625 95.12109375 -45.2340625 95.12109375 -45.9140625 95.12109375 C-46.18476562 95.67152344 -46.45546875 96.22195313 -46.734375 96.7890625 C-47.55467601 98.41065092 -48.4061491 100.01669136 -49.28125 101.609375 C-56.55912743 115.24125422 -58.51442917 127.9090966 -58.45996094 143.06225586 C-58.46872039 144.69992543 -58.47921432 146.33758649 -58.49128723 147.97523499 C-58.51887786 152.37097038 -58.52255795 156.76642282 -58.52156734 161.16223216 C-58.52471989 165.77468576 -58.55038625 170.38701621 -58.57354736 174.99940491 C-58.61393297 183.71123179 -58.63440682 192.42298415 -58.64752126 201.13489014 C-58.66643605 212.9230865 -58.71652696 224.71114917 -58.76476479 236.49925518 C-58.83982146 255.03986102 -58.87358485 273.58030546 -58.9140625 292.12109375 C-82.6740625 292.12109375 -106.4340625 292.12109375 -130.9140625 292.12109375 C-130.99466857 252.51216734 -130.99466857 252.51216734 -131.01171875 235.81835938 C-131.02355134 224.32590942 -131.03740446 212.83348895 -131.06494141 201.34106445 C-131.08499339 192.96840303 -131.09780669 184.5957657 -131.10223949 176.22308093 C-131.10482706 171.79752637 -131.11082723 167.3720407 -131.12552261 162.94650841 C-131.27671098 115.51655764 -125.20314765 74.69537699 -90.9140625 39.12109375 C-90.27082031 38.4146875 -89.62757813 37.70828125 -88.96484375 36.98046875 C-66.4103727 12.9093196 -32.27078876 1.34101133 0 0 Z " fill="#76C159" transform="translate(804.9140625,899.87890625)"/>
<path d="M0 0 C20.13 0 40.26 0 61 0 C72.08784155 28.67545229 83.14743391 57.36148506 94.17784119 86.05906677 C97.10821131 93.68228286 100.04166192 101.30430836 102.9765625 108.92578125 C104.63040612 113.22127805 106.28403743 117.51685651 107.9375 121.8125 C108.54644608 123.39446671 108.54644608 123.39446671 109.16769409 125.00839233 C114.03464452 137.65502802 118.88570078 150.30763303 123.71484375 162.96875 C123.9526827 163.59222509 124.19052166 164.21570019 124.43556786 164.85806847 C126.96720543 171.49470584 129.49680618 178.13211386 132.02319336 184.77075195 C136.25662857 195.88545903 140.52002213 206.98194917 145 218 C150.64376518 204.0492078 156.08553227 190.02857451 161.43365479 175.96200562 C163.73597456 169.90687365 166.04386596 163.85386567 168.3515625 157.80078125 C168.58731365 157.18224588 168.8230648 156.56371052 169.06595993 155.92643166 C174.05592898 142.83532005 179.08736547 129.76032562 184.125 116.6875 C191.11492027 98.54691904 198.03945508 80.38249891 204.92819214 62.20327759 C212.81018182 41.41220892 220.88347594 20.70085954 229 0 C248.47 0 267.94 0 288 0 C287.13608586 4.31957068 285.90850588 8.00734725 284.234375 12.03125 C283.95909973 12.70361694 283.68382446 13.37598389 283.40020752 14.06872559 C282.52099915 16.21423471 281.63582044 18.35721341 280.75 20.5 C279.59689089 23.30123656 278.44630389 26.10350151 277.296875 28.90625 C276.87323669 29.93806396 276.87323669 29.93806396 276.44104004 30.99072266 C274.26091858 36.31815133 272.17689316 41.67881593 270.12719727 47.05786133 C268.76834065 50.6046625 267.36067342 54.13024679 265.94287109 57.65380859 C265.01192627 59.97032329 264.09236089 62.29104965 263.17578125 64.61328125 C259.30879549 74.37718821 255.31999068 84.0699567 251.05786133 93.66918945 C248.89334849 98.61867938 247.20087212 103.53283153 245.71264648 108.72363281 C244.7607483 111.76422847 243.42553442 114.50007689 241.9375 117.3125 C240.09173202 120.83026136 238.42757956 124.29299299 237 128 C236.64679687 128.84820313 236.29359375 129.69640625 235.9296875 130.5703125 C235.58164063 131.41335938 235.23359375 132.25640625 234.875 133.125 C234.52179687 133.97320313 234.16859375 134.82140625 233.8046875 135.6953125 C232.83518122 138.06519909 232.83518122 138.06519909 233 141 C232.34 141 231.68 141 231 141 C230.82984375 141.61746094 230.6596875 142.23492188 230.484375 142.87109375 C228.96545533 148.17923323 227.17805171 153.11945133 224.76953125 158.08984375 C223.81316058 160.12055598 223.81316058 160.12055598 224 163 C223.34 163 222.68 163 222 163 C221.82984375 163.60585937 221.6596875 164.21171875 221.484375 164.8359375 C219.95862758 170.11112805 218.2096028 175.19276708 216.109375 180.265625 C214.34838783 184.60608633 212.75980722 189.0122459 211.1484375 193.41015625 C210 196 210 196 208 197 C207.64073005 198.66126879 207.31370443 200.32952749 207 202 C206.18120867 204.24876865 205.31535467 206.48064304 204.41796875 208.69921875 C204.0347924 209.65185356 204.0347924 209.65185356 203.64387512 210.62373352 C202.82914223 212.64665492 202.00846134 214.6670994 201.1875 216.6875 C200.64738499 218.0252286 200.10766787 219.36311792 199.56835938 220.70117188 C198.52286355 223.29369923 197.47507761 225.88528069 196.42529297 228.47607422 C195.21988715 231.45634615 194.02271038 234.43960624 192.83203125 237.42578125 C191.08661426 241.79725537 189.29974407 246.15066095 187.5 250.5 C183.83157169 259.39581686 180.19749785 268.27069285 177.02734375 277.359375 C175.87517608 280.3208402 174.42110988 283.15778024 173 286 C154.19 286 135.38 286 116 286 C107.32093109 268.64186217 107.32093109 268.64186217 105.70849609 263.23681641 C104.08234604 258.10284438 101.86590032 253.16199935 99.8125 248.1875 C98.83292719 245.79704139 97.85376446 243.4064147 96.875 241.015625 C96.39160156 239.83677734 95.90820312 238.65792969 95.41015625 237.44335938 C93.36394717 232.44686823 91.33095626 227.44526253 89.3125 222.4375 C88.80456909 221.18972778 88.80456909 221.18972778 88.28637695 219.91674805 C86 214.2307384 86 214.2307384 86 212 C85.34 211.67 84.68 211.34 84 211 C83.28082275 209.26647949 83.28082275 209.26647949 82.61035156 207.02929688 C81.05292686 202.08871976 79.19200118 197.32515262 77.234375 192.53125 C76.87788879 191.65206909 76.52140259 190.77288818 76.15411377 189.86706543 C75.02201112 187.07697859 73.88603293 184.28848851 72.75 181.5 C72.00366011 179.66155824 71.25756457 177.82301726 70.51171875 175.984375 C69.7735718 174.16661213 69.03529157 172.34890336 68.296875 170.53125 C67.93630005 169.64332764 67.5757251 168.75540527 67.20422363 167.84057617 C65.45506655 163.54203796 63.69119979 159.25075519 61.89257812 154.97265625 C61.40087128 153.79793762 61.40087128 153.79793762 60.89923096 152.5994873 C60.28529443 151.13571942 59.66701598 149.6737622 59.04364014 148.21398926 C57.8250026 145.30395356 57 143.18984984 57 140 C56.34 139.67 55.68 139.34 55 139 C53.98396549 136.55079071 53.06436694 134.12370283 52.1875 131.625 C50.04057348 125.66471671 47.69130388 119.92201163 44.8828125 114.234375 C44 112 44 112 44 108 C43.01 107.505 43.01 107.505 42 107 C41.01255243 104.66002674 40.12886785 102.34485094 39.28515625 99.953125 C38.75062079 98.48308275 38.21427143 97.01369903 37.67626953 95.54492188 C37.40002747 94.78912842 37.1237854 94.03333496 36.83917236 93.25463867 C35.53960919 89.76304921 34.15035117 86.30994716 32.74609375 82.859375 C32.47439362 82.19111694 32.20269348 81.52285889 31.92276001 80.83435059 C31.09604738 78.80553232 30.26679578 76.77776352 29.4375 74.75 C28.88066801 73.38289043 28.32402717 72.01570299 27.76757812 70.6484375 C24.89991925 63.60943185 22.00515032 56.58249407 19.06884766 49.57177734 C17.33459124 45.39894565 15.66782751 41.19971023 14 37 C13.29211376 35.2289879 12.58378425 33.4581529 11.875 31.6875 C10 27 10 27 9.10546875 24.73828125 C8.19107046 22.47328761 7.25581728 20.22008812 6.30859375 17.96875 C6.00373047 17.24042969 5.69886719 16.51210938 5.38476562 15.76171875 C4.75267072 14.25251071 4.11724483 12.7446935 3.47851562 11.23828125 C3.17494141 10.50996094 2.87136719 9.78164063 2.55859375 9.03125 C2.28329834 8.37705078 2.00800293 7.72285156 1.72436523 7.04882812 C1 5 1 5 0 0 Z " fill="#858685" transform="translate(2366,906)"/>
<path d="M0 0 C17.49 0 34.98 0 53 0 C53 25.41 53 50.82 53 77 C77.42 77 101.84 77 127 77 C127 92.84 127 108.68 127 125 C102.58 125 78.16 125 53 125 C53.06159579 148.62804146 53.06159579 148.62804146 53.16015625 172.25585938 C53.20858467 181.90063216 53.25307188 191.54530136 53.27099609 201.19018555 C53.28407303 208.21664228 53.31118999 215.2428866 53.35461307 222.26922363 C53.37709334 225.98374448 53.39291886 229.69800467 53.39188385 233.41259956 C53.39242265 257.54373311 54.75431989 277.17964871 71.6640625 295.8359375 C87.02206495 310.78800156 108.73665813 312.93350832 129 314 C129 331.16 129 348.32 129 366 C110.45875937 367.15882754 110.45875937 367.15882754 104 366 C102.86280518 365.81147461 102.86280518 365.81147461 101.70263672 365.61914062 C83.52506364 362.46040266 67.49160972 357.2276423 51 349 C50.18015625 348.59136719 49.3603125 348.18273438 48.515625 347.76171875 C48.01546875 347.51035156 47.5153125 347.25898437 47 347 C47 346.34 47 345.68 47 345 C45.6696875 344.6596875 45.6696875 344.6596875 44.3125 344.3125 C40.55055865 342.82191947 38.71813848 340.94465002 36 338 C35.34 337.67 34.68 337.34 34 337 C34 336.34 34 335.68 34 335 C33.34 335 32.68 335 32 335 C30.37890625 333.13671875 30.37890625 333.13671875 28.5625 330.6875 C26.50072954 327.92214481 24.44085767 325.42797715 22 323 C13.26756823 312.19253494 7.73400104 299.36319183 4.5 285.921875 C3.97721593 283.78442826 3.97721593 283.78442826 2.875 280.9375 C2 278 2 278 3 275 C2.34 274.67 1.68 274.34 1 274 C-1.05683764 260.45145127 -0.13489644 246.15716052 -0.11352539 232.5 C-0.11324285 229.95580039 -0.11340257 227.41160069 -0.1139679 224.86740112 C-0.11419437 219.42085153 -0.11138943 213.97431741 -0.10573006 208.527771 C-0.09755326 200.65328111 -0.09499355 192.77879699 -0.09374207 184.90430331 C-0.09156119 172.12402442 -0.0849274 159.34375197 -0.07543945 146.56347656 C-0.06624028 134.15918001 -0.05917174 121.75488522 -0.05493164 109.35058594 C-0.05466892 108.58414465 -0.05440619 107.81770337 -0.05413551 107.02803659 C-0.05283034 103.18247637 -0.05156666 99.33691614 -0.05032361 95.4913559 C-0.03998105 63.66089823 -0.02155906 31.83045254 0 0 Z " fill="#858685" transform="translate(2224,829)"/>
<path d="M0 0 C0 23.43 0 46.86 0 71 C-6.27 71.66 -12.54 72.32 -19 73 C-34.41201067 76.59613582 -48.50852728 82.91518572 -57.3125 96.75 C-65.44469953 111.60911813 -67.29695965 125.81715165 -67.31884766 142.48706055 C-67.32816308 144.12413519 -67.33833411 145.76120516 -67.34928894 147.39826965 C-67.37642118 151.81069081 -67.39168818 156.22308035 -67.40471697 160.63556266 C-67.42042149 165.2586907 -67.44718811 169.88175487 -67.4727478 174.50483704 C-67.51940661 183.24510726 -67.55621288 191.98538967 -67.58942068 200.72572023 C-67.63490725 212.54656002 -67.6957327 224.36732044 -67.75566864 236.18809414 C-67.84959599 254.79202283 -67.92313222 273.39597488 -68 292 C-91.76 292 -115.52 292 -140 292 C-140.08060607 254.00767308 -140.08060607 254.00767308 -140.09765625 237.9140625 C-140.10945858 226.86358758 -140.12322441 215.81314346 -140.15087891 204.76269531 C-140.17102227 196.70966955 -140.18376521 188.65666912 -140.18817699 180.60361886 C-140.19074954 176.35271578 -140.19664887 172.10188507 -140.21146011 167.85100555 C-140.35687615 124.33742003 -140.25124459 78.25279304 -111 43 C-110.31421875 42.15050781 -109.6284375 41.30101562 -108.921875 40.42578125 C-86.83090594 14.3666196 -52.83409185 3.54106488 -19.78515625 0.59765625 C-13.1513487 0.11387208 -6.66821489 0 0 0 Z " fill="#76C058" transform="translate(1440,900)"/>
<path d="M0 0 C23.43 0 46.86 0 71 0 C71 94.38 71 188.76 71 286 C47.57 286 24.14 286 0 286 C0 191.62 0 97.24 0 0 Z " fill="#76C059" transform="translate(1774,906)"/>
<path d="M0 0 C8.932543 8.41265954 12.60308269 18.71344904 13.4375 30.8125 C13.21118943 42.67117402 8.45386507 52.7750452 0.5625 61.4375 C-9.00219373 70.54057724 -19.81884377 72.68795166 -32.4765625 72.4609375 C-42.97810732 72.00158019 -52.28302941 66.80185282 -59.59375 59.37890625 C-66.87389142 50.44587558 -70.80786454 38.68114341 -69.8125 27.1875 C-68.12421551 15.23010892 -63.52251099 5.33339651 -53.96484375 -2.31640625 C-36.97647198 -14.12502039 -15.89387697 -13.28404496 0 0 Z " fill="#76C159" transform="translate(1837.8125,812.8125)"/>
</svg>
