<?xml version="1.0" encoding="UTF-8"?>
<svg version="1.1" xmlns="http://www.w3.org/2000/svg" width="2560" height="442">
<path d="M0 0 C1.6367627 -0.00302323 3.27352399 -0.00691358 4.91028279 -0.01159257 C9.39323056 -0.02185921 13.87609824 -0.01969414 18.35905254 -0.01541197 C23.19966864 -0.01294232 28.04026558 -0.02196191 32.88087463 -0.02944946 C42.35866544 -0.04219201 51.8364279 -0.04399069 61.31422583 -0.0416492 C69.01938483 -0.03986532 76.72453524 -0.0416172 84.42969322 -0.04587364 C86.07539471 -0.04676643 86.07539471 -0.04676643 87.7543427 -0.04767724 C89.98326912 -0.04888901 92.21219554 -0.05010315 94.44112196 -0.05131962 C115.33945874 -0.06219354 136.23777938 -0.06003342 157.13611706 -0.05393478 C176.24574393 -0.04876626 195.35531981 -0.06001961 214.46493659 -0.07903299 C234.09585971 -0.09841503 253.72675872 -0.10666672 273.35769147 -0.10290974 C284.37526101 -0.10099819 295.39278716 -0.10348078 306.41034889 -0.11762428 C315.79019329 -0.12954372 325.16996758 -0.13093666 334.54981295 -0.11883412 C339.33306208 -0.1129493 344.11618304 -0.11183504 348.8994236 -0.12383652 C353.2834263 -0.1347082 357.66719399 -0.13157669 362.05118575 -0.11757483 C363.63187337 -0.11493144 365.21257948 -0.11728315 366.79324893 -0.1253107 C385.04400447 -0.21151942 400.02474651 4.05401214 413.92680359 16.26069641 C414.6035614 16.84335266 415.28031921 17.42600891 415.97758484 18.02632141 C428.86077228 29.93388883 435.23078011 46.42270639 436.04092431 63.69354844 C436.2375408 70.81594179 436.21002192 77.94017174 436.20146179 85.06465149 C436.20581483 87.46422483 436.21099994 89.86379678 436.21694946 92.2633667 C436.2289054 98.07896419 436.23149857 103.89450789 436.2291492 109.71011619 C436.22735828 114.44270195 436.22913217 119.17527379 436.23337364 123.90785789 C436.23396883 124.58421582 436.23456402 125.26057375 436.23517724 125.95742738 C436.23638913 127.33193774 436.23760327 128.70644809 436.23881962 130.08095845 C436.24966941 142.94045194 436.24754488 155.79991913 436.24143478 168.65941408 C436.2362683 180.39102378 436.2475185 192.12255038 436.26653299 203.85414366 C436.28596434 215.9367329 436.29415812 228.01928293 436.29040974 240.10188788 C436.28850566 246.87067539 436.29090732 253.63939222 436.30512428 260.40816689 C436.3177576 266.77684468 436.31570658 273.14535692 436.30271339 279.51403236 C436.30036001 281.84069374 436.30303745 284.16736697 436.31133652 286.49401474 C436.38365007 308.35707952 434.72161068 327.33067782 420.92680359 345.26069641 C419.84399109 346.77663391 419.84399109 346.77663391 418.73930359 348.32319641 C407.72416694 360.98880956 390.68951379 368.30704773 374.18052995 369.54062355 C369.9932861 369.64799281 365.81541537 369.66622437 361.62728882 369.64837646 C360.01467148 369.65255756 358.4020571 369.6580393 356.78944808 369.66469628 C352.39163456 369.67906802 347.99400977 369.67493223 343.59618628 369.66752946 C338.84008216 369.66277945 334.08401781 369.67532383 329.32792664 369.68554688 C320.02312198 369.70270471 310.71838494 369.70358111 301.41356858 369.69833397 C293.84678914 369.69428522 286.28002961 369.6957442 278.71325111 369.70108223 C277.09507315 369.70220486 277.09507315 369.70220486 275.44420472 369.70335018 C273.25232936 369.70488172 271.060454 369.70642007 268.86857865 369.70796514 C248.33348753 369.72167941 227.79843456 369.71626016 207.26334433 369.70477993 C188.49938233 369.69484989 169.73551897 369.70778621 150.97157218 369.73171412 C131.67950141 369.75612911 112.38747653 369.76570702 93.09539062 369.7590614 C82.27447854 369.75557436 71.45364228 369.7577671 60.63274193 369.77531242 C51.42070596 369.79006447 42.20879921 369.79063071 32.9967657 369.77324151 C28.30206952 369.76475364 23.60760389 369.76252755 18.91292 369.77789307 C14.60528351 369.79181656 10.2980734 369.78687963 5.99046109 369.76765383 C4.44212422 369.76391683 2.89375256 369.76674848 1.34544691 369.77726548 C-19.23442022 369.90698288 -37.52691712 364.33476853 -52.58638 349.80659485 C-64.53121273 337.38710703 -70.39917858 321.47481046 -70.33389282 304.46411133 C-70.33771837 303.39922999 -70.34154392 302.33434865 -70.34548539 301.23719817 C-70.35577677 297.68077124 -70.35183052 294.12450692 -70.34785461 290.56806946 C-70.35220324 288.01333975 -70.35738689 285.45861135 -70.36334229 282.90388489 C-70.37533841 276.69156181 -70.37788552 270.47929835 -70.37554202 264.26696595 C-70.37375621 259.21480522 -70.37551415 254.16265759 -70.37976646 249.11049843 C-70.38036165 248.39038902 -70.38095684 247.6702796 -70.38157007 246.92834869 C-70.38278187 245.46524701 -70.38399601 244.00214532 -70.38521244 242.53904364 C-70.39608024 228.82847027 -70.39392923 215.11792152 -70.3878276 201.40734676 C-70.38266043 188.87989398 -70.39390994 176.352519 -70.41292582 163.82508161 C-70.43232477 150.94601654 -70.44055653 138.06698824 -70.43680257 125.18790847 C-70.43489347 117.9636932 -70.43734946 110.73954412 -70.45151711 103.51534081 C-70.46470945 96.71993999 -70.46214298 89.92471971 -70.44910622 83.12931061 C-70.44674272 80.63929758 -70.44946696 78.14927359 -70.45772934 75.65927315 C-70.46821743 72.25208017 -70.46007901 68.84540707 -70.44741821 65.43823242 C-70.4547925 64.46019313 -70.46216678 63.48215384 -70.46976453 62.47447699 C-70.33876172 45.63891822 -62.73996518 29.56855944 -50.85444641 17.81147766 C-35.87577015 4.07401194 -19.80104906 -0.0518636 0 0 Z M24.92680359 95.26069641 C24.92680359 154.33069641 24.92680359 213.40069641 24.92680359 274.26069641 C129.20680359 274.26069641 233.48680359 274.26069641 340.92680359 274.26069641 C340.92680359 215.19069641 340.92680359 156.12069641 340.92680359 95.26069641 C236.64680359 95.26069641 132.36680359 95.26069641 24.92680359 95.26069641 Z " fill="#FABB04" transform="translate(70.07319641113281,-0.2606964111328125)"/>
<path d="M0 0 C1.6367627 -0.00302323 3.27352399 -0.00691358 4.91028279 -0.01159257 C9.39323056 -0.02185921 13.87609824 -0.01969414 18.35905254 -0.01541197 C23.19966864 -0.01294232 28.04026558 -0.02196191 32.88087463 -0.02944946 C42.35866544 -0.04219201 51.8364279 -0.04399069 61.31422583 -0.0416492 C69.01938483 -0.03986532 76.72453524 -0.0416172 84.42969322 -0.04587364 C86.07539471 -0.04676643 86.07539471 -0.04676643 87.7543427 -0.04767724 C89.98326912 -0.04888901 92.21219554 -0.05010315 94.44112196 -0.05131962 C115.33945874 -0.06219354 136.23777938 -0.06003342 157.13611706 -0.05393478 C176.24574393 -0.04876626 195.35531981 -0.06001961 214.46493659 -0.07903299 C234.09585971 -0.09841503 253.72675872 -0.10666672 273.35769147 -0.10290974 C284.37526101 -0.10099819 295.39278716 -0.10348078 306.41034889 -0.11762428 C315.79019329 -0.12954372 325.16996758 -0.13093666 334.54981295 -0.11883412 C339.33306208 -0.1129493 344.11618304 -0.11183504 348.8994236 -0.12383652 C353.2834263 -0.1347082 357.66719399 -0.13157669 362.05118575 -0.11757483 C363.63187337 -0.11493144 365.21257948 -0.11728315 366.79324893 -0.1253107 C385.04400447 -0.21151942 400.02474651 4.05401214 413.92680359 16.26069641 C414.6035614 16.84335266 415.28031921 17.42600891 415.97758484 18.02632141 C428.75539514 29.83649171 435.13751227 46.17856791 436.03469086 63.32225418 C436.19999709 68.81809537 436.15698566 74.31398391 436.12211609 79.81147766 C436.11837672 81.56409543 436.11553412 83.31671531 436.11354065 85.06933594 C436.10597687 89.6378629 436.0863925 94.20625866 436.06413269 98.7747345 C436.04351615 103.45428188 436.03450544 108.13385088 436.02445984 112.81343079 C436.0031383 121.96257635 435.96909225 131.11162538 435.92680359 140.26069641 C435.59680359 140.26069641 435.26680359 140.26069641 434.92680359 140.26069641 C434.8320575 139.20495422 434.8320575 139.20495422 434.73539734 138.12788391 C433.17268218 125.52746483 427.56981343 113.70484557 417.92680359 105.26069641 C408.59116715 98.50092138 398.97630465 95.13372781 387.42570686 95.13764858 C385.47972798 95.13466201 385.47972798 95.13466201 383.49443638 95.1316151 C382.06182724 95.13446782 380.62921828 95.13741341 379.1966095 95.14044189 C377.66937965 95.14000572 376.14214987 95.13912995 374.6149205 95.13785273 C370.42128628 95.13561694 366.22767761 95.13961655 362.03404665 95.14463079 C357.51059247 95.14894823 352.98713974 95.14748794 348.46368408 95.14672852 C340.62749515 95.1462041 332.79131455 95.14934229 324.95512772 95.15496635 C313.62530907 95.16309252 302.29549444 95.16569772 290.96567319 95.16695435 C272.58389927 95.1691431 254.20212979 95.17579843 235.82035828 95.18525696 C217.96391319 95.19443562 200.10746931 95.20150277 182.25102234 95.20576477 C181.13917171 95.20603277 180.02732108 95.20630077 178.881778 95.20657688 C170.18640806 95.2086563 161.4910381 95.21061323 152.79566813 95.21253145 C110.17270921 95.22196555 67.5497614 95.24208377 24.92680359 95.26069641 C24.92680359 154.33069641 24.92680359 213.40069641 24.92680359 274.26069641 C-40.79328188 274.26069641 -40.79328188 274.26069641 -54.07319641 263.26069641 C-54.70870422 262.76054016 -55.34421204 262.26038391 -55.99897766 261.74507141 C-63.93062486 254.78069826 -68.63233339 243.53663438 -70.07319641 233.26069641 C-70.36919699 227.50077917 -70.35736028 221.74816016 -70.34785461 215.98188782 C-70.35220714 214.23488142 -70.35739208 212.48787693 -70.36334229 210.74087524 C-70.37668549 206.01559203 -70.37731617 201.29038903 -70.37477899 196.56509066 C-70.37370608 192.61151217 -70.3786008 188.65794971 -70.38338441 184.70437467 C-70.39446344 175.37255036 -70.39492605 166.0407663 -70.38887024 156.7089386 C-70.3828313 147.10169882 -70.39514315 137.49460553 -70.41644031 127.88739073 C-70.4340884 119.62042964 -70.44005261 111.35351504 -70.43680257 103.08653581 C-70.43499467 98.15721994 -70.43757649 93.22800858 -70.45151711 88.29870987 C-70.46414311 83.66109596 -70.46210641 79.0237095 -70.44910622 74.38609886 C-70.44675125 72.69107548 -70.44943611 70.99603584 -70.45772934 69.30103111 C-70.54402982 50.28058878 -65.71358441 33.20716944 -52.27778625 19.21943665 C-37.33702126 4.44012417 -20.4020904 -0.05343787 0 0 Z " fill="#4185F3" transform="translate(70.07319641113281,-0.2606964111328125)"/>
<path d="M0 0 C39.95327199 -1.3854624 77.93126137 9.64063082 108.99511719 35.078125 C110.07813211 35.95612207 111.1614654 36.83372659 112.24511719 37.7109375 C114.83859734 39.82144814 117.4217833 41.94313456 119.99511719 44.078125 C119.41310845 47.3429994 118.47643579 48.96686479 116.12768555 51.28613281 C115.52713852 51.88645325 114.92659149 52.48677368 114.30784607 53.10528564 C113.65679398 53.74085388 113.00574188 54.37642212 112.33496094 55.03125 C111.67049454 55.69147156 111.00602814 56.35169312 110.32142639 57.03192139 C108.19876155 59.1378014 106.06590114 61.23300828 103.93261719 63.328125 C102.49117785 64.75451732 101.0504141 66.1815927 99.61035156 67.609375 C96.07972886 71.10693094 92.53992666 74.59495065 88.99511719 78.078125 C85.53571037 76.43156946 82.96584896 74.46338822 80.05761719 71.953125 C54.47245482 50.83521321 25.42387787 45.49780961 -7.00488281 47.078125 C-13.52385447 47.73034032 -19.75185118 49.15218536 -26.00488281 51.078125 C-26.69146973 51.28711426 -27.37805664 51.49610352 -28.08544922 51.71142578 C-43.28791076 56.51277098 -57.26406599 64.26643756 -69.00488281 75.078125 C-69.52679199 75.55765625 -70.04870117 76.0371875 -70.58642578 76.53125 C-92.97965987 97.34138951 -107.04306782 126.58349973 -108.35644531 157.3203125 C-109.08701415 189.69656537 -99.55427132 219.52778461 -78.00488281 244.078125 C-77.28945313 244.89410156 -76.57402344 245.71007812 -75.83691406 246.55078125 C-55.00318713 268.71348889 -24.3913255 280.47220183 5.66308594 281.4296875 C34.15017994 281.73220531 61.08376728 273.51410974 82.99511719 255.078125 C83.88972656 254.16417969 84.78433594 253.25023437 85.70605469 252.30859375 C87.99511719 250.078125 87.99511719 250.078125 89.99511719 250.078125 C90.26066406 249.49546875 90.52621094 248.9128125 90.79980469 248.3125 C92.03048373 246.01201499 93.42171932 244.30300625 95.12011719 242.328125 C105.86929672 228.57813285 110.56048341 212.12056141 112.99511719 195.078125 C60.52511719 194.583125 60.52511719 194.583125 6.99511719 194.078125 C6.99511719 178.898125 6.99511719 163.718125 6.99511719 148.078125 C56.82511719 148.078125 106.65511719 148.078125 157.99511719 148.078125 C166.40114847 177.4992345 160.29674359 215.41905418 147.99511719 243.078125 C147.70266113 243.7386084 147.41020508 244.3990918 147.10888672 245.07958984 C140.16898088 260.43996375 130.64799624 273.00150489 118.99511719 285.078125 C118.32996094 285.79484375 117.66480469 286.5115625 116.97949219 287.25 C90.97158718 314.56922795 52.86003612 327.17772877 15.88964844 328.36328125 C-31.32049964 329.23685241 -74.55875513 313.87601634 -108.88378906 281.12890625 C-132.93707288 257.77153153 -149.60451724 228.12161692 -156.00488281 195.078125 C-156.18220947 194.16603271 -156.35953613 193.25394043 -156.54223633 192.31420898 C-158.14504225 183.14461839 -158.36387077 174.16758321 -158.31738281 164.890625 C-158.31522766 164.11644226 -158.31307251 163.34225952 -158.31085205 162.5446167 C-158.25988878 151.13738796 -157.83928005 140.16924462 -155.00488281 129.078125 C-154.81152344 128.27375 -154.61816406 127.469375 -154.41894531 126.640625 C-145.73165912 91.03347665 -125.30358675 58.36696711 -96.00488281 36.078125 C-95.08449219 35.34207031 -94.16410156 34.60601562 -93.21582031 33.84765625 C-85.29403697 27.64475042 -76.90481583 22.71242248 -68.00488281 18.078125 C-67.38742187 17.75569824 -66.76996094 17.43327148 -66.13378906 17.10107422 C-45.85646672 6.6844175 -22.75549713 0.88672176 0 0 Z " fill="#5E6267" transform="translate(841.0048828125,19.921875)"/>
<path d="M0 0 C2.57764205 2.20758453 4.96743043 4.62758668 7.3671875 7.02734375 C7.6971875 1.74734375 8.0271875 -3.53265625 8.3671875 -8.97265625 C23.2171875 -8.97265625 38.0671875 -8.97265625 53.3671875 -8.97265625 C53.4350946 17.13257392 53.49027956 43.23773178 53.52262402 69.34302807 C53.53804603 81.46610378 53.55904562 93.58912042 53.59350586 105.7121582 C53.62355183 116.28737106 53.64279634 126.8625411 53.64945298 137.43779546 C53.65333966 143.02933102 53.66237491 148.62074417 53.68437767 154.21224022 C53.70498381 159.49240147 53.71097341 164.77239177 53.70651054 170.05258942 C53.7073251 171.97400916 53.71314521 173.8954356 53.72480392 175.81682014 C53.82055013 192.43373693 52.78377244 209.46724778 47.6796875 225.40234375 C47.42477539 226.21775635 47.16986328 227.03316895 46.90722656 227.87329102 C39.17639725 251.46063315 23.33938171 269.61344366 1.3671875 281.02734375 C-2.88573963 283.07814174 -7.11502883 284.65892821 -11.6328125 286.02734375 C-12.26477539 286.22199219 -12.89673828 286.41664063 -13.54785156 286.6171875 C-38.4499184 293.94766605 -68.28443185 292.46670841 -91.6328125 281.02734375 C-92.53 280.59808594 -93.4271875 280.16882813 -94.3515625 279.7265625 C-114.68252956 269.35660085 -132.1693192 251.39250368 -140.6328125 230.02734375 C-140.6328125 229.03734375 -140.6328125 228.04734375 -140.6328125 227.02734375 C-135.13854831 224.71822629 -129.63929882 222.42159294 -124.13500977 220.13647461 C-122.26248448 219.35702723 -120.39137837 218.57416143 -118.52172852 217.7878418 C-115.83713931 216.65947428 -113.14771944 215.54341904 -110.45703125 214.4296875 C-109.61943771 214.07454575 -108.78184418 213.71940399 -107.91886902 213.35350037 C-107.13828629 213.0330928 -106.35770355 212.71268524 -105.5534668 212.38256836 C-104.86729782 212.09610947 -104.18112885 211.80965057 -103.47416687 211.51451111 C-101.6328125 211.02734375 -101.6328125 211.02734375 -98.6328125 212.02734375 C-97.4140625 214.109375 -97.4140625 214.109375 -96.1328125 216.83984375 C-88.73023976 230.89559298 -77.08897759 240.16925723 -62.140625 245.30078125 C-47.54211906 249.53025493 -31.27671604 247.60666895 -17.8203125 240.83984375 C-4.10577937 232.92507102 2.31343953 221.05739392 6.3671875 206.02734375 C7.17384139 201.87951346 7.48574854 197.97667408 7.46484375 193.75390625 C7.46162109 192.60019531 7.45839844 191.44648438 7.45507812 190.2578125 C7.44669922 189.06800781 7.43832031 187.87820313 7.4296875 186.65234375 C7.42291992 184.83283203 7.42291992 184.83283203 7.41601562 182.9765625 C7.40427104 179.99343868 7.3878459 177.01041696 7.3671875 174.02734375 C6.51120972 174.81963379 6.51120972 174.81963379 5.63793945 175.62792969 C-11.04246289 190.80614067 -31.01493298 197.228756 -53.51220703 196.1796875 C-75.02940342 194.63389766 -95.45636129 186.27349574 -111.6328125 172.02734375 C-112.86064453 171.01414062 -112.86064453 171.01414062 -114.11328125 169.98046875 C-133.46890206 153.53569324 -146.41655034 128.35019106 -148.6328125 103.02734375 C-150.40208639 71.98079946 -143.54101136 43.65437433 -122.6328125 20.02734375 C-122.09398437 19.34542969 -121.55515625 18.66351563 -121 17.9609375 C-93.23346169 -16.57282246 -35.91970275 -27.35939976 0 0 Z M-84.6328125 45.02734375 C-85.28121094 45.66542969 -85.92960937 46.30351562 -86.59765625 46.9609375 C-97.75947353 58.70893337 -102.77877488 76.08095381 -102.6328125 92.02734375 C-101.64590008 109.68602673 -95.66721629 126.6526054 -82.4765625 139.0546875 C-70.55928299 148.7672703 -57.00129682 154.85211712 -41.375 154.30859375 C-24.63444884 152.59161414 -11.57223103 144.52511858 -0.8828125 131.77734375 C10.62705207 116.11415541 13.34263225 97.06522552 10.86328125 78.19140625 C7.59926426 61.29312401 -0.43148335 46.23312209 -14.6328125 36.02734375 C-38.2266846 21.27277131 -65.36686586 25.49334915 -84.6328125 45.02734375 Z " fill="#5E6267" transform="translate(1639.6328125,151.97265625)"/>
<path d="M0 0 C7.32821898 -0.07659857 14.65633321 -0.12882844 21.98486328 -0.16479492 C24.4735093 -0.17980232 26.96212923 -0.20021464 29.45068359 -0.22631836 C33.04531325 -0.26305706 36.63959064 -0.2798075 40.234375 -0.29296875 C41.33174988 -0.30845261 42.42912476 -0.32393646 43.55975342 -0.33988953 C58.88518457 -0.343165 70.55609209 4.0913732 81.70703125 14.55078125 C94.32296418 28.02640297 95.14948302 44.54347102 95.16113281 61.984375 C95.16576755 63.60489513 95.17079308 65.22541419 95.17617798 66.84593201 C95.18924366 71.23275592 95.19573587 75.61956457 95.20018864 80.00640488 C95.20312971 82.75440421 95.2072365 85.50239946 95.21169281 88.25039673 C95.22535438 96.86919668 95.23502674 105.4879872 95.2388947 114.10679722 C95.24336779 124.01646591 95.26088649 133.92599616 95.2898953 143.83562279 C95.31160233 151.52089908 95.32160382 159.20613667 95.32293582 166.89144325 C95.32397771 171.46939052 95.32975246 176.04720741 95.34775543 180.62512207 C95.36439226 184.93934417 95.36631705 189.25334008 95.35761642 193.56758308 C95.35685423 195.13795648 95.36107862 196.70834285 95.37107468 198.27868462 C95.48804881 217.82469308 92.18946459 235.15655071 80 251 C79.278125 252.010625 78.55625 253.02125 77.8125 254.0625 C67.33409532 266.1109588 50.74747818 273.89145114 34.93049431 275.16687775 C29.43839194 275.41333449 23.94498689 275.3452567 18.44921875 275.29296875 C16.69660306 275.2873597 14.94398259 275.28309581 13.19136047 275.28010559 C8.62275754 275.26875973 4.0544498 275.23938346 -0.51403809 275.20599365 C-5.19356292 275.17506898 -9.87313638 275.16155284 -14.55273438 275.14648438 C-23.7019512 275.11450182 -32.85095087 275.06343284 -42 275 C-42 274.67 -42 274.34 -42 274 C-41.10539062 273.78085937 -40.21078125 273.56171875 -39.2890625 273.3359375 C-26.27567337 269.9230444 -15.15682986 264.61505895 -8.01953125 252.69140625 C-2.769215 242.86215612 -0.69720792 234.13824753 -0.7215271 223.0721283 C-0.7128385 221.63339201 -0.7128385 221.63339201 -0.70397437 220.16559035 C-0.68706162 216.97355868 -0.68410539 213.78167235 -0.68115234 210.58959961 C-0.67184815 208.29273121 -0.66167875 205.99586618 -0.65071106 203.69900513 C-0.62345247 197.47866921 -0.60827386 191.2583559 -0.59528303 185.03797603 C-0.57963442 178.53168448 -0.55284969 172.02543894 -0.5272522 165.5191803 C-0.48580476 154.60370222 -0.45120169 143.6882222 -0.421875 132.77270508 C-0.39165875 121.53310332 -0.35729442 110.29352677 -0.31738281 99.05395508 C-0.31492126 98.36034962 -0.31245972 97.66674416 -0.30992357 96.95212036 C-0.29754838 93.47226722 -0.28509196 89.99241438 -0.27259517 86.51256168 C-0.16913942 57.67507715 -0.08004584 28.83755865 0 0 Z " fill="#E94335" transform="translate(411,94)"/>
<path d="M0 0 C1.78075501 0.00373553 3.56151209 0.00657995 5.3422699 0.00857544 C10.00291738 0.01616943 14.66343792 0.03578103 19.32403564 0.0579834 C24.09035526 0.07853358 28.85669562 0.08759668 33.62304688 0.09765625 C42.95578459 0.11903134 52.28842856 0.1531155 61.62109375 0.1953125 C58.64111006 1.72720114 55.7553223 2.81280159 52.55859375 3.8203125 C39.3954124 8.57172823 31.83529505 17.39928859 25.69921875 29.5078125 C22.93057389 36.40936201 22.3323337 42.6928632 22.38058472 50.04089355 C22.37802144 51.48447353 22.37802144 51.48447353 22.37540638 52.95721674 C22.37212499 56.16621622 22.38309296 59.37500432 22.39404297 62.58398438 C22.39460737 64.89055374 22.39428995 67.19712347 22.39315796 69.50369263 C22.39258459 75.75511721 22.40433642 82.0064649 22.41830587 88.25787163 C22.43081583 94.79483525 22.43198394 101.33180067 22.43435669 107.86877441 C22.43953174 118.83733451 22.45235381 129.80586769 22.47021484 140.77441406 C22.48858815 152.06933451 22.50273755 163.3642473 22.51123047 174.65917969 C22.51175592 175.35603486 22.51228136 176.05289004 22.51282273 176.77086204 C22.51543291 180.26696959 22.5179603 183.7630772 22.52044654 187.25918484 C22.5411616 216.23791268 22.57652111 245.21661191 22.62109375 274.1953125 C14.88398634 274.29747394 7.14705551 274.36709538 -0.59057617 274.41503906 C-3.21792094 274.43504464 -5.84522181 274.46225787 -8.47241211 274.49707031 C-12.26817721 274.54607582 -16.06334914 274.56839301 -19.859375 274.5859375 C-21.01720993 274.60658264 -22.17504486 274.62722778 -23.3679657 274.64849854 C-36.10015764 274.65193254 -46.54901949 271.33759038 -56.37890625 263.1953125 C-57.01441406 262.69515625 -57.64992188 262.195 -58.3046875 261.6796875 C-66.2363347 254.71531435 -70.93804323 243.47125047 -72.37890625 233.1953125 C-72.67490683 227.43539526 -72.66307012 221.68277625 -72.65356445 215.91650391 C-72.65791697 214.16949751 -72.66310192 212.42249302 -72.66905212 210.67549133 C-72.68239533 205.95020812 -72.68302601 201.22500512 -72.68048882 196.49970675 C-72.67941592 192.54612826 -72.68431064 188.5925658 -72.68909425 184.63899076 C-72.70017328 175.30716645 -72.70063589 165.97538239 -72.69458008 156.64355469 C-72.68854114 147.03631491 -72.70085299 137.42922161 -72.72215015 127.82200682 C-72.73979824 119.55504573 -72.74576245 111.28813113 -72.7425124 103.0211519 C-72.74070451 98.09183603 -72.74328633 93.16262467 -72.75722694 88.23332596 C-72.76985295 83.59571205 -72.76781625 78.95832559 -72.75481606 74.32071495 C-72.75246108 72.62569157 -72.75514595 70.93065193 -72.76343918 69.2356472 C-72.84973966 50.21520487 -68.01929425 33.14178553 -54.58349609 19.15405273 C-38.84339598 3.5840429 -21.28155266 -0.13158146 0 0 Z " fill="#34A753" transform="translate(72.37890625,-0.1953125)"/>
<path d="M0 0 C17.67769949 15.29616493 30.09369598 36.35110618 36.3125 58.8125 C16.16186266 67.18500299 -3.99407935 75.54363009 -24.1875 83.8125 C-40.49068861 90.48857883 -56.76960535 97.22208719 -73.03900146 103.98007202 C-75.3846622 104.95396228 -77.73087084 105.92652276 -80.07714844 106.89892578 C-83.24968289 108.21403477 -86.41902076 109.53654598 -89.58691406 110.86279297 C-91.14384801 111.51147053 -92.7008129 112.16007379 -94.2578125 112.80859375 C-94.9783078 113.1119313 -95.6988031 113.41526886 -96.44113159 113.72779846 C-101.46109014 115.8125 -101.46109014 115.8125 -103.6875 115.8125 C-95.60336247 130.48031013 -85.78099927 140.18781682 -69.46484375 145.1015625 C-65.79040242 146.04213679 -62.4838839 146.56757201 -58.6875 146.8125 C-57.9553125 146.8640625 -57.223125 146.915625 -56.46875 146.96875 C-40.95267508 147.5732724 -26.29627668 142.08569667 -14.6875 131.875 C-10.52057976 127.85579924 -6.88342113 123.64009394 -3.6875 118.8125 C-0.78881954 119.41370743 1.32659515 120.27461813 3.79589844 121.89794922 C4.45628113 122.32864716 5.11666382 122.75934509 5.79705811 123.20309448 C6.49824768 123.66974518 7.19943726 124.13639587 7.921875 124.6171875 C8.64868469 125.09697052 9.37549438 125.57675354 10.12432861 126.07107544 C11.65600783 127.08522868 13.18565005 128.10246421 14.71337891 129.12255859 C17.06037631 130.68608524 19.41833242 132.23202181 21.77734375 133.77734375 C23.26372073 134.76457205 24.74942196 135.75281866 26.234375 136.7421875 C26.9436615 137.20478973 27.652948 137.66739197 28.38372803 138.14401245 C30.08154988 139.28939947 31.70575887 140.5425026 33.3125 141.8125 C33.3125 148.98900658 24.52644447 155.88141388 19.75 160.8125 C0.227708 180.31918665 -26.48313604 189.83038045 -53.75 190.1875 C-78.13982343 190.16958387 -101.96217718 182.84353176 -120.6875 166.8125 C-121.48671875 166.15765625 -122.2859375 165.5028125 -123.109375 164.828125 C-145.25810346 145.98107035 -155.15554014 119.15488761 -157.6875 90.8125 C-159.53326029 63.65345567 -151.66074873 35.172555 -134.390625 13.99609375 C-132.21420036 11.53823489 -129.9733109 9.16845311 -127.6875 6.8125 C-127.07648438 6.12800781 -126.46546875 5.44351563 -125.8359375 4.73828125 C-93.75729093 -30.00221046 -34.93086514 -29.03277088 0 0 Z M-78.6875 24.8125 C-79.47253906 25.163125 -80.25757813 25.51375 -81.06640625 25.875 C-93.95589999 32.33095513 -104.48036235 44.44179123 -109.6875 57.8125 C-111.93006627 65.20666428 -113.07979939 72.0972787 -112.6875 79.8125 C-109.37435863 79.22651317 -106.43137754 78.42165875 -103.33251953 77.11694336 C-102.07841782 76.59308296 -102.07841782 76.59308296 -100.79898071 76.05863953 C-99.8985202 75.67706192 -98.99805969 75.29548431 -98.0703125 74.90234375 C-97.11643646 74.50267899 -96.16256042 74.10301422 -95.17977905 73.6912384 C-93.12479535 72.82971811 -91.0706755 71.96613497 -89.01733398 71.10070801 C-83.61168963 68.82244737 -78.19993593 66.55877513 -72.7890625 64.29296875 C-71.69430603 63.83403229 -70.59954956 63.37509583 -69.47161865 62.9022522 C-58.7317005 58.40318302 -47.96407324 53.97291381 -37.1875 49.5625 C-36.33931702 49.21516815 -35.49113403 48.8678363 -34.61724854 48.50997925 C-29.97476434 46.60894391 -25.3315505 44.70970566 -20.6875 42.8125 C-21.88688689 36.03781089 -25.55041453 32.1521992 -31.0234375 28.0703125 C-45.42979978 18.93567901 -63.10202934 17.68771341 -78.6875 24.8125 Z " fill="#5E6267" transform="translate(1957.6875,158.1875)"/>
<path d="M0 0 C19.99261107 17.37599122 32.40808081 41.55937188 35.28515625 67.91015625 C36.7292771 96.22846353 33.02809831 122.87937149 15.28515625 145.91015625 C14.88989746 146.43270996 14.49463867 146.95526367 14.08740234 147.49365234 C-2.25711374 168.87017531 -26.50092612 182.68053388 -53.14453125 186.4375 C-80.50451726 189.60644783 -108.06373864 183.81905532 -130.72265625 167.78125 C-133.48532687 165.58134561 -136.11122766 163.29583138 -138.71484375 160.91015625 C-140.08576172 159.67845703 -140.08576172 159.67845703 -141.484375 158.421875 C-160.76150541 140.22318545 -172.13023037 114.17048338 -172.91796875 87.6953125 C-173.3101995 59.015 -166.74495561 31.45379747 -146.71484375 9.91015625 C-146.27301758 9.42208496 -145.83119141 8.93401367 -145.37597656 8.43115234 C-108.26205851 -32.31150996 -41.86139575 -34.98587021 0 0 Z M-113.99609375 40.7265625 C-124.60602889 55.59234849 -128.59986899 73.68410638 -126.21484375 91.68359375 C-123.31188951 107.94673509 -115.78683737 123.68626388 -102.28515625 133.71484375 C-93.85745977 139.40659239 -84.01797362 144.33776015 -73.71484375 144.91015625 C-72.90917969 144.96042969 -72.10351562 145.01070313 -71.2734375 145.0625 C-56.12290515 145.60128138 -41.59812612 139.83565354 -30.33984375 129.78515625 C-21.66487384 121.61044673 -15.98513939 111.32176682 -12.71484375 99.91015625 C-12.49054688 99.14832031 -12.26625 98.38648438 -12.03515625 97.6015625 C-7.78401851 80.33495511 -10.80515279 61.09387152 -19.734375 45.84375 C-29.16255359 31.87814424 -41.47540748 22.87093755 -57.90234375 19.09765625 C-79.61502698 14.98095033 -100.1310012 23.60887119 -113.99609375 40.7265625 Z " fill="#5E6267" transform="translate(1430.71484375,161.08984375)"/>
<path d="M0 0 C20.29788246 19.29706237 30.80694268 46.68026394 31.56860352 74.37597656 C31.92335361 103.79340478 22.42193365 130.6631162 2.03637695 152.24902344 C-17.78610336 172.53249166 -44.174299 182.60632824 -72.21484375 182.97265625 C-97.78185786 182.93897112 -121.00803981 175.20020258 -140.71484375 158.59765625 C-141.51535156 157.9428125 -142.31585937 157.28796875 -143.140625 156.61328125 C-161.88842611 140.63537299 -173.7119757 116.97228786 -176.71484375 92.59765625 C-177.03047506 87.57356494 -177.09662537 82.56835488 -177.08984375 77.53515625 C-177.08929993 76.85267822 -177.0887561 76.1702002 -177.0881958 75.46704102 C-177.04789492 64.44716683 -176.23297169 54.10384653 -172.71484375 43.59765625 C-172.50053711 42.94990234 -172.28623047 42.30214844 -172.06542969 41.63476562 C-162.98215665 15.11213724 -144.79732982 -5.81779105 -119.71484375 -18.40234375 C-78.948133 -37.04024489 -33.2487942 -29.42159486 0 0 Z M-113.83984375 31.16015625 C-127.24024344 45.18446119 -131.27539839 63.62861772 -130.98828125 82.41015625 C-130.36152351 99.36364291 -122.64999829 113.83392224 -110.71484375 125.59765625 C-110.15152344 126.17128906 -109.58820313 126.74492187 -109.0078125 127.3359375 C-98.5996785 137.13629726 -83.95264923 141.2918538 -69.9296875 140.875 C-54.83017846 139.57236921 -40.94367227 132.7613777 -30.71484375 121.59765625 C-21.29592248 110.20260836 -15.90065976 96.30177477 -14.71484375 81.59765625 C-14.66199219 80.96085937 -14.60914063 80.3240625 -14.5546875 79.66796875 C-13.87056667 63.90344529 -19.28650579 48.07495922 -28.71484375 35.59765625 C-29.19179687 34.9325 -29.66875 34.26734375 -30.16015625 33.58203125 C-38.89327445 22.43523716 -52.29078275 16.26054217 -65.99609375 14.07421875 C-84.46570843 12.09533146 -100.29500001 18.82749697 -113.83984375 31.16015625 Z " fill="#5E6267" transform="translate(1202.71484375,165.40234375)"/>
<path d="M0 0 C13.86 0 27.72 0 42 0 C44.4938245 6.23456126 46.8916926 12.37717123 49.01074219 18.72924805 C49.28539653 19.54474908 49.56005087 20.36025011 49.84302807 21.20046329 C50.74699192 23.88665541 51.64693048 26.57417767 52.546875 29.26171875 C53.19265394 31.18313282 53.83870225 33.10445638 54.48500061 35.0256958 C55.86030897 39.11570424 57.23390206 43.20628296 58.60610962 47.29733276 C60.76922294 53.74616512 62.93631729 60.19365492 65.10424805 66.64086914 C65.83580629 68.81657204 66.56735841 70.992277 67.29890442 73.16798401 C67.66125498 74.24565096 68.02360554 75.32331791 68.39693642 76.43364143 C69.49816318 79.70928058 70.59901583 82.98504523 71.69975281 86.260849 C78.0505354 105.15988358 84.42438914 124.05105386 90.8125 142.9375 C91.05271 143.64775078 91.29292 144.35800156 91.54040909 145.08977509 C94.34065998 153.36952735 97.14211115 161.64887275 99.94469547 169.92783546 C101.57865133 174.75474321 103.211819 179.58191722 104.84472656 184.40917969 C107.11719338 191.12692606 109.39139617 197.84408285 111.6668396 204.56082153 C112.50554163 207.03712468 113.34378758 209.51358236 114.18154907 211.99020386 C115.31626621 215.34419949 116.45279201 218.6975765 117.58984375 222.05078125 C117.92396271 223.03960297 118.25808167 224.02842468 118.60232544 225.04721069 C118.90621185 225.94211212 119.21009827 226.83701355 119.52319336 227.7590332 C119.91757851 228.92339653 119.91757851 228.92339653 120.31993103 230.11128235 C120.97663026 232.05139131 120.97663026 232.05139131 122 234 C122.21281113 233.37996094 122.42562225 232.75992188 122.6448822 232.12109375 C131.78959109 205.48349596 140.93691667 178.84789976 150.375 152.3125 C156.91709015 133.91759204 163.38357831 115.49718619 169.8125 97.0625 C171.66911935 91.73953049 173.5259339 86.41662908 175.3828125 81.09375 C175.6131978 80.4332943 175.84358311 79.77283859 176.08094978 79.09236908 C180.99658496 65.00125453 185.92654004 50.91517558 190.86557007 36.83224487 C191.73896821 34.3415772 192.61204147 31.85079558 193.48477173 29.3598938 C194.69078576 25.91800351 195.89794904 22.47651855 197.10546875 19.03515625 C197.63362686 17.52707397 197.63362686 17.52707397 198.17245483 15.98852539 C198.50250519 15.04879883 198.83255554 14.10907227 199.17260742 13.14086914 C199.45488693 12.33605606 199.73716644 11.53124298 200.02799988 10.70204163 C201.31600619 7.12154139 202.66393299 3.56284537 204 0 C217.86 0 231.72 0 246 0 C245.32702707 4.71081051 244.87442647 7.87600729 243.29199219 12.10668945 C242.9385675 13.06247391 242.58514282 14.01825836 242.2210083 15.00300598 C241.83354431 16.02939682 241.44608032 17.05578766 241.046875 18.11328125 C240.63959167 19.20996628 240.23230835 20.30665131 239.81268311 21.43656921 C238.92880485 23.81469925 238.04182414 26.19167799 237.15209961 28.56762695 C234.98753282 34.34897643 232.84184579 40.13730876 230.69525146 45.92535019 C229.94762522 47.94060611 229.19918353 49.95555794 228.45068359 51.9704895 C223.38457988 65.61721841 218.43785856 79.30638106 213.5 93 C206.59516709 112.13203042 199.61476313 131.23433834 192.5625 150.3125 C185.1356941 170.40445234 177.81391282 190.53179179 170.5625 210.6875 C158.51978748 244.15450796 158.51978748 244.15450796 152.81784058 259.66738892 C152.24431563 261.22775769 151.6716216 262.78843221 151.09988403 264.34945679 C150.32853463 266.45407799 149.55358636 268.55733562 148.77734375 270.66015625 C148.35702881 271.80105713 147.93671387 272.94195801 147.50366211 274.11743164 C145.43759214 279.45217929 143.2003287 284.71921112 141 290 C127.8 290 114.6 290 101 290 C99.60910156 286.0090625 98.21820312 282.018125 96.78515625 277.90625 C94.87826227 272.43727036 92.97059986 266.96855901 91.0625 261.5 C90.81251251 260.78354309 90.56252502 260.06708618 90.30496216 259.32891846 C83.74735942 240.53686436 77.16377824 221.75472569 70.5 203 C63.93498655 184.52250163 57.45487311 166.01617244 51 147.5 C44.19525064 127.98049381 37.35690413 108.47385136 30.43649292 88.9949646 C26.04485454 76.63206148 21.68263651 64.25923139 17.3515625 51.875 C17.11072245 51.18640081 16.86988239 50.49780163 16.62174416 49.7883358 C14.23170132 42.95411094 11.84359484 36.11921305 9.45883179 29.283144 C8.79102602 27.36925787 8.12275712 25.45553414 7.45431519 23.54187012 C6.63338355 21.19129546 5.81336608 18.84040126 4.99441528 16.48913574 C4.62831146 15.44124878 4.26220764 14.39336182 3.88500977 13.3137207 C3.56766373 12.40370804 3.25031769 11.49369537 2.9233551 10.55610657 C2.29063981 8.80457273 1.60723461 7.07076567 0.88218689 5.35539246 C0 3 0 3 0 0 Z " fill="#5E6267" transform="translate(2314,52)"/>
<path d="M0 0 C65.67 0 131.34 0 199 0 C199 11.88 199 23.76 199 36 C172.27 36 145.54 36 118 36 C118 119.49 118 202.98 118 289 C105.79 289 93.58 289 81 289 C81 205.51 81 122.02 81 36 C54.27 36 27.54 36 0 36 C0 24.12 0 12.24 0 0 Z " fill="#5E6268" transform="translate(2092,52)"/>
<path d="M0 0 C15.51 0 31.02 0 47 0 C47 102.3 47 204.6 47 310 C31.49 310 15.98 310 0 310 C0 207.7 0 105.4 0 0 Z " fill="#5F6368" transform="translate(1727,32)"/>
</svg>
