<?xml version="1.0" encoding="UTF-8"?>
<svg version="1.1" xmlns="http://www.w3.org/2000/svg" width="515" height="361">
<path d="M0 0 C0.71251382 -0.00290688 1.42502763 -0.00581376 2.15913278 -0.00880873 C4.57097787 -0.01616659 6.98257314 -0.00913871 9.39441681 -0.002285 C11.13125982 -0.00458716 12.86810186 -0.00776202 14.60494184 -0.01173949 C19.39665073 -0.02012991 24.1882805 -0.01594307 28.97998977 -0.00976706 C34.14023753 -0.00526084 39.30047124 -0.01221719 44.46071625 -0.0177269 C54.57713729 -0.0266422 64.69352873 -0.02468941 74.80995095 -0.01890162 C83.02832987 -0.01439351 91.24670046 -0.01376852 99.46508026 -0.01594925 C101.21644825 -0.01640895 101.21644825 -0.01640895 103.0031974 -0.01687793 C105.37475988 -0.01751735 107.74632235 -0.01816578 110.11788481 -0.01882312 C132.38075674 -0.02453267 154.64361222 -0.01795873 176.90648144 -0.00722238 C196.02864815 0.00171369 215.15079058 0.00016182 234.27295685 -0.00905991 C256.4535978 -0.01975151 278.63422433 -0.02398329 300.8148675 -0.01783538 C303.17793687 -0.01719825 305.54100624 -0.01656951 307.90407562 -0.01594925 C309.06689465 -0.0156407 310.22971367 -0.01533215 311.42776963 -0.01501425 C319.64077154 -0.01328397 327.85376433 -0.01620955 336.06676483 -0.02090836 C346.06921613 -0.02650489 356.07163601 -0.02502671 366.07408369 -0.01434687 C371.18208507 -0.00907355 376.290034 -0.00706149 381.39803505 -0.01364517 C386.06733058 -0.01957259 390.73652466 -0.01638303 395.40581089 -0.00569007 C397.10160218 -0.00344233 398.79740191 -0.00462275 400.49318784 -0.00944164 C402.78530178 -0.01545915 405.07706099 -0.00935118 407.36915588 0 C408.64621037 0.0003247 409.92326486 0.00064941 411.23901796 0.00098395 C414.18457794 0.25168228 414.18457794 0.25168228 416.18457794 2.25168228 C416.38062422 5.39350689 416.44926176 8.44714226 416.4318161 11.59006119 C416.43423052 12.57041147 416.43664493 13.55076176 416.43913251 14.56081963 C416.44479684 17.86669448 416.43608578 21.17237842 416.42749786 24.47824478 C416.42857007 26.83979724 416.43050783 29.20134944 416.43325043 31.56290054 C416.43760622 37.32384749 416.43264235 43.08473209 416.42340013 48.84567213 C416.4130308 55.54942052 416.41308593 62.25315642 416.41357271 68.95691133 C416.41407367 80.91520647 416.40490255 92.8734749 416.39038849 104.83176041 C416.37630039 116.44504661 416.36921769 128.05830929 416.36988068 139.67160416 C416.36992063 140.38682684 416.36996059 141.10204953 416.37000176 141.83894563 C416.37004211 142.55291119 416.37008246 143.26687676 416.37012404 144.00247765 C416.37081337 157.20957106 416.36492679 170.41665444 416.35597083 183.62374461 C416.35295048 188.30060713 416.35189079 192.97746782 416.35143852 197.65433121 C416.35043694 203.94480092 416.34435546 210.23524574 416.33427238 216.52570724 C416.33134152 218.8404996 416.33012319 221.15529482 416.33069992 223.47008896 C416.33118756 226.61785391 416.32556507 229.76554822 416.31829071 232.91330338 C416.31983931 233.83994104 416.32138791 234.76657871 416.32298344 235.72129631 C416.29875665 242.02332486 416.29875665 242.02332486 415.18457794 244.25168228 C397.03457794 244.25168228 378.88457794 244.25168228 360.18457794 244.25168228 C370.87259848 261.54699517 370.87259848 261.54699517 382.23535919 278.29465103 C384.18457794 281.25168228 384.18457794 281.25168228 384.18457794 283.25168228 C379.26005266 284.39745011 374.67029535 284.80714369 370.18457794 282.25168228 C363.97682162 275.55133702 359.57158342 267.21228863 355.18457794 259.25168228 C351.97346813 259.84581942 351.31448997 260.09935501 349.07910919 262.72043228 C348.39203888 263.72074478 347.70496857 264.72105728 346.99707794 265.75168228 C346.30227325 266.75199478 345.60746857 267.75230728 344.89160919 268.78293228 C344.32828888 269.59761978 343.76496857 270.41230728 343.18457794 271.25168228 C342.18457794 272.25168228 342.18457794 272.25168228 338.62207794 272.31418228 C337.48770294 272.29355728 336.35332794 272.27293228 335.18457794 272.25168228 C337.29028137 262.77601685 340.26155201 253.50793107 343.18457794 244.25168228 C251.11457794 244.25168228 159.04457794 244.25168228 64.18457794 244.25168228 C66.82457794 252.17168228 69.46457794 260.09168228 72.18457794 268.25168228 C72.18457794 269.57168228 72.18457794 270.89168228 72.18457794 272.25168228 C68.99317169 272.65793228 68.99317169 272.65793228 65.18457794 272.25168228 C63.11811775 270.0360961 61.76553753 268.2921312 60.24707794 265.75168228 C59.84940216 265.13164322 59.45172638 264.51160416 59.04199982 263.87277603 C58.06740911 262.34630866 57.12292209 260.80069485 56.18457794 259.25168228 C53.41364642 259.59781383 52.39207944 260.00779117 50.55298615 262.16940689 C50.03566925 262.98933121 49.51835236 263.80925552 48.98535919 264.65402603 C48.4162381 265.54412369 47.847117 266.43422134 47.26074982 267.35129166 C46.6787381 268.28779556 46.09672638 269.22429947 45.49707794 270.18918228 C44.90346466 271.121819 44.30985138 272.05445572 43.69824982 273.01535416 C40.78319212 277.5428469 40.78319212 277.5428469 38.18457794 282.25168228 C35.02442169 282.66574478 35.02442169 282.66574478 31.12207794 282.87668228 C29.1865506 282.98883072 29.1865506 282.98883072 27.21192169 283.10324478 C26.21289825 283.15222916 25.21387482 283.20121353 24.18457794 283.25168228 C24.82520973 279.5424188 26.46757517 277.05290856 28.57129669 273.96261978 C29.26287872 272.93781509 29.95446075 271.91301041 30.66699982 270.85715103 C31.3946756 269.79109634 32.12235138 268.72504166 32.87207794 267.62668228 C34.29493815 265.5318799 35.71553907 263.43554102 37.13379669 261.33761978 C37.76632355 260.40997818 38.3988504 259.48233658 39.05054474 258.52658463 C41.88626866 254.17486277 44.53593568 249.71903609 47.18457794 245.25168228 C46.17646561 245.239552 46.17646561 245.239552 45.14798737 245.22717667 C38.17284494 245.14132944 31.19799325 245.04183525 24.22315216 244.93429947 C21.61773295 244.89594146 19.01225955 244.86110083 16.40674591 244.82980728 C12.66842992 244.78430477 8.9304893 244.72628602 5.19239044 244.66574478 C3.43609818 244.64841797 3.43609818 244.64841797 1.64432526 244.63074112 C0.56335571 244.61087143 -0.51761383 244.59100174 -1.63134003 244.57052994 C-2.586203 244.55720627 -3.54106598 244.5438826 -4.5248642 244.53015518 C-6.81542206 244.25168228 -6.81542206 244.25168228 -8.81542206 242.25168228 C-9.01366135 239.10997248 -9.08452161 236.05626205 -9.06938934 232.91330338 C-9.07250932 231.93295309 -9.07562931 230.95260281 -9.07884383 229.94254494 C-9.08686158 226.63667653 -9.08048551 223.33098976 -9.07421112 220.02511978 C-9.07691931 217.66356676 -9.08047926 215.30201458 -9.08483124 212.94046402 C-9.09302681 207.17952132 -9.09179604 201.41863696 -9.08600596 195.65769243 C-9.08149583 190.977165 -9.08087374 186.29665218 -9.08305359 181.6161232 C-9.08336005 180.95088493 -9.08366652 180.28564666 -9.08398227 179.60024965 C-9.0846217 178.24898417 -9.08527013 176.8977187 -9.08592746 175.54645324 C-9.0916355 162.86483383 -9.08506544 150.18324331 -9.07432672 137.50162864 C-9.06539078 126.61165809 -9.06694269 115.72173018 -9.07616425 104.83176041 C-9.08685852 92.1966424 -9.09108613 79.56154974 -9.08493972 66.92642784 C-9.0843026 65.58003235 -9.08367385 64.23363686 -9.08305359 62.88724136 C-9.08274504 62.2247263 -9.08243649 61.56221123 -9.08211859 60.87961996 C-9.08038911 56.20275159 -9.08331217 51.52589924 -9.0880127 46.84903336 C-9.09377131 40.5585448 -9.08981658 34.2681371 -9.07822418 27.97765732 C-9.07556962 25.66286478 -9.07635615 23.34806549 -9.08074951 21.0332756 C-9.0861751 17.8854442 -9.07940732 14.73787563 -9.06938934 11.59006119 C-9.07385079 10.66342352 -9.07831223 9.73678585 -9.08290887 8.78206825 C-9.03370862 0.86961044 -7.71102879 0.00196061 0 0 Z " fill="#2E2E2E" transform="translate(53.81542205810547,38.74831771850586)"/>
<path d="M0 0 C28.38 0 56.76 0 86 0 C85.67 1.32 85.34 2.64 85 4 C85.99 4.99 85.99 4.99 87 6 C87.12424085 11.1767022 85.84732153 16.19696402 84 21 C84.66 21.33 85.32 21.66 86 22 C85.505 22.598125 85.01 23.19625 84.5 23.8125 C82.71723582 25.97029994 82.71723582 25.97029994 83 29 C82.4250025 31.97082042 81.34631928 34.30736144 80 37 C79.71125 37.94875 79.4225 38.8975 79.125 39.875 C77.68801326 43.86662983 75.93288799 48.03355601 72 50 C72 50.99 72 51.98 72 53 C71.34 53 70.68 53 70 53 C69.896875 53.763125 69.79375 54.52625 69.6875 55.3125 C68.94399108 58.21894395 68.15141968 59.03566029 66 61 C66 61.66 66 62.32 66 63 C64.125 65.125 64.125 65.125 62 67 C61.34 67 60.68 67 60 67 C59.67 67.66 59.34 68.32 59 69 C56.5625 71.625 56.5625 71.625 54 74 C53.34 74 52.68 74 52 74 C51.34 74.66 50.68 75.32 50 76 C49.01 76.33 48.02 76.66 47 77 C45.64631404 78.31266518 44.31200404 79.64567325 43 81 C42.01 81.495 42.01 81.495 41 82 C40.01 82.66 39.02 83.32 38 84 C37.01 83.67 36.02 83.34 35 83 C34.62875 83.45375 34.2575 83.9075 33.875 84.375 C31.44095403 86.48450651 29.07127117 87.10421257 26 88 C24.515 88.495 24.515 88.495 23 89 C22.01 89 21.02 89 20 89 C16.91808751 89.84052159 13.85995331 90.72972896 10.8125 91.6875 C8.6045881 92.06817447 7.13525457 91.61991262 5 91 C4.01 91 3.02 91 2 91 C1.34 90.67 0.68 90.34 0 90 C0 60.3 0 30.6 0 0 Z " fill="#787878" transform="translate(51,46)"/>
<path d="M0 0 C0.37374616 1.78498268 0.37374616 1.78498268 0.3719368 3.98867798 C0.38182156 5.24682343 0.38182156 5.24682343 0.39190602 6.53038597 C0.38384962 7.45702364 0.37579321 8.38366131 0.36749268 9.33837891 C0.37239594 10.80890433 0.37239594 10.80890433 0.37739825 12.30913734 C0.38471821 15.61510009 0.37048426 18.92062639 0.35644531 22.2265625 C0.35723563 24.58811519 0.35933117 26.94966776 0.36264038 29.31121826 C0.3672542 35.07219715 0.35794188 40.83303282 0.34235242 46.59398985 C0.32484362 53.29773848 0.32339381 60.00146111 0.32273683 66.70522904 C0.32104752 78.66354082 0.30521741 90.621792 0.28125 102.58007812 C0.25799082 114.19336449 0.24382544 125.80661241 0.24023438 137.41992188 C0.24001161 138.13514456 0.23978884 138.85036725 0.23955932 139.58726335 C0.23911673 141.02801685 0.23867471 142.46877034 0.23823325 143.90952384 C0.23801369 144.62017718 0.23779412 145.33083051 0.2375679 146.0630188 C0.23724392 147.12624522 0.23724392 147.12624522 0.2369134 148.21095097 C0.23321483 159.26465911 0.22185492 170.31836102 0.2094375 181.37206233 C0.20499811 185.38337796 0.20156154 189.39469301 0.19881538 193.40601015 C0.19397443 200.36203159 0.18387817 207.31801997 0.16798782 214.27402496 C0.16345337 216.58881612 0.16062346 218.90361131 0.15958023 221.21840668 C0.15784278 224.36617515 0.14998171 227.51386804 0.14044189 230.66162109 C0.14174162 232.0515776 0.14174162 232.0515776 0.1430676 233.46961403 C0.11420752 239.77158496 0.11420752 239.77158496 -1 242 C-19.15 242 -37.3 242 -56 242 C-45.31197947 259.29531289 -45.31197947 259.29531289 -33.94921875 276.04296875 C-32 279 -32 279 -32 281 C-36.92452528 282.14576782 -41.51428259 282.5554614 -46 280 C-52.20775632 273.29965474 -56.61299452 264.96060635 -61 257 C-64.21110981 257.59413714 -64.87008797 257.84767273 -67.10546875 260.46875 C-67.79253906 261.4690625 -68.47960937 262.469375 -69.1875 263.5 C-69.88230469 264.5003125 -70.57710938 265.500625 -71.29296875 266.53125 C-71.85628906 267.3459375 -72.41960937 268.160625 -73 269 C-74 270 -74 270 -77.5625 270.0625 C-78.696875 270.041875 -79.83125 270.02125 -81 270 C-78.89429657 260.52433457 -75.92302593 251.25624879 -73 242 C-132.07 242 -191.14 242 -252 242 C-245.79358251 234.24197813 -245.79358251 234.24197813 -242.06747389 233.73927653 C-239.50873507 233.61906923 -236.96914759 233.61496378 -234.40765381 233.63923645 C-232.93244841 233.63539154 -232.93244841 233.63539154 -231.42744088 233.63146895 C-228.12301139 233.62651681 -224.81903603 233.64304787 -221.51464844 233.65942383 C-219.14955659 233.66026979 -216.78446395 233.65979556 -214.41937256 233.65809631 C-207.98999373 233.65723373 -201.56078198 233.67490216 -195.13144207 233.69581819 C-189.09572873 233.71407343 -183.06000188 233.71568596 -177.02426556 233.7187738 C-165.06920535 233.72533989 -153.11420655 233.74530529 -141.15917969 233.77368164 C-129.54590151 233.80121816 -117.9326401 233.82241933 -106.31933594 233.83520508 C-105.5962072 233.83600907 -104.87307847 233.83681306 -104.12803674 233.83764142 C-97.83786951 233.84457995 -91.54770181 233.85103835 -85.25753403 233.85744953 C-58.17163156 233.88567916 -31.08589185 233.94544024 -4 234 C-4 158.1 -4 82.2 -4 4 C-32.05 4.33 -60.1 4.66 -89 5 C-134.72417798 5.12995778 -134.72417798 5.12995778 -148.94392395 5.11329651 C-150.60358989 5.11195067 -152.2632559 5.11069068 -153.92292196 5.10950619 C-156.50694703 5.10764826 -159.09097194 5.10573911 -161.67499676 5.10355959 C-170.63137366 5.09604185 -179.58774944 5.09486392 -188.54412904 5.09374207 C-204.49727691 5.09159523 -220.45041945 5.08505921 -236.40356445 5.07543945 C-251.82836889 5.06614842 -267.25317182 5.05913775 -282.67797852 5.05493164 C-283.65097474 5.05466364 -284.62397096 5.05439565 -285.62645191 5.05411953 C-293.24473681 5.05203805 -300.86302173 5.05008185 -308.48130667 5.04816496 C-345.32087603 5.03886398 -382.16043189 5.01871612 -419 5 C-419 80.24 -419 155.48 -419 233 C-419.66 233 -420.32 233 -421 233 C-421.03167377 205.22531472 -420.95377741 177.45248226 -420.79807091 149.67825007 C-420.769234 144.49079107 -420.741691 139.30332516 -420.71398926 134.11585999 C-420.66174451 124.3672047 -420.60839779 114.61855579 -420.5546174 104.86990887 C-420.49327235 93.73979124 -420.43321326 82.60966677 -420.37324238 71.47954166 C-420.25022167 48.6530201 -420.12565043 25.82650723 -420 3 C-386.46749775 2.96967782 -352.93660942 3.03976922 -319.40450883 3.20192909 C-313.37495713 3.23082459 -307.34539906 3.25833156 -301.31584167 3.28601074 C-289.99150925 3.33819432 -278.66718273 3.3915551 -267.34285802 3.4453826 C-254.41084952 3.50679123 -241.47883472 3.56682085 -228.54681933 3.62675762 C-202.03120581 3.74968079 -175.5156003 3.87426105 -149 4 C-149 2.35 -149 0.7 -149 -1 C-130.01587154 -1.17719303 -111.03167607 -1.34287089 -92.047328 -1.49477577 C-83.23291053 -1.56557467 -74.41855541 -1.64016596 -65.60424805 -1.72363281 C-57.92324252 -1.79635833 -50.24221495 -1.86202169 -42.56107694 -1.91914403 C-38.49258081 -1.94964849 -34.42418453 -1.98373019 -30.35579491 -2.02626419 C-26.52853944 -2.06616574 -22.701326 -2.09664275 -18.87393379 -2.11981392 C-17.46740119 -2.13000477 -16.06088894 -2.14367331 -14.65442657 -2.16103554 C-12.73753694 -2.18418437 -10.82049732 -2.19373484 -8.90348816 -2.20254517 C-7.82959933 -2.2117631 -6.75571051 -2.22098103 -5.64927959 -2.23047829 C-3 -2 -3 -2 0 0 Z " fill="#1F1F1F" transform="translate(470,41)"/>
<path d="M0 0 C3.77082909 -0.0147493 7.54165058 -0.02348192 11.3125 -0.03125 C12.8912793 -0.03753418 12.8912793 -0.03753418 14.50195312 -0.04394531 C24.02769058 -0.05860029 33.49742148 0.37247123 43 1 C44.56531645 4.60677479 45.13018799 6.2327067 44 10 C44.495 11.485 44.495 11.485 45 13 C44.3507041 14.34187818 43.68268138 15.67479497 43 17 C43 18.32 43 19.64 43 21 C42.34 21 41.68 21 41 21 C40.814375 22.175625 40.814375 22.175625 40.625 23.375 C40 26 40 26 38 28 C35.71470072 31.24570741 35.71470072 31.24570741 35 35 C33.70264493 36.04625409 32.36733028 37.04701223 31 38 C30.01036184 38.98963816 29.03630695 39.99477993 28.0625 41 C26 43 26 43 24 44 C23.34 44.37125 22.68 44.7425 22 45.125 C21.34 45.41375 20.68 45.7025 20 46 C19.34 45.67 18.68 45.34 18 45 C18 45.66 18 46.32 18 47 C13.41954333 48.38277937 9.75834749 49 5 49 C2.84971696 49.94978897 2.84971696 49.94978897 1 51 C0 50 0 50 -0.12025452 47.98155212 C-0.11803391 47.09552811 -0.11581329 46.20950409 -0.11352539 45.29663086 C-0.11344986 44.29566879 -0.11337433 43.29470673 -0.11329651 42.26341248 C-0.10813522 41.1748848 -0.10297394 40.08635712 -0.09765625 38.96484375 C-0.0962413 37.85645645 -0.09482635 36.74806915 -0.09336853 35.60609436 C-0.08775033 32.04986931 -0.07519475 28.49370617 -0.0625 24.9375 C-0.05748734 22.53320403 -0.05292403 20.12890708 -0.04882812 17.72460938 C-0.03777499 11.81638496 -0.02101917 5.9081969 0 0 Z " fill="#878787" transform="translate(51,46)"/>
<path d="M0 0 C0.66 0 1.32 0 2 0 C2 75.57 2 151.14 2 229 C-135.28 229 -272.56 229 -414 229 C-413.505 228.01 -413.505 228.01 -413 227 C-276.71 227 -140.42 227 0 227 C0 152.09 0 77.18 0 0 Z " fill="#4B4B4B" transform="translate(464,46)"/>
<path d="M0 0 C5.28 0 10.56 0 16 0 C15.67 1.32 15.34 2.64 15 4 C15.66 4.66 16.32 5.32 17 6 C17.12424085 11.1767022 15.84732153 16.19696402 14 21 C14.66 21.33 15.32 21.66 16 22 C15.505 22.598125 15.01 23.19625 14.5 23.8125 C12.71723582 25.97029994 12.71723582 25.97029994 13 29 C12.4250025 31.97082042 11.34631928 34.30736144 10 37 C9.71125 37.94875 9.4225 38.8975 9.125 39.875 C7.68801326 43.86662983 5.93288799 48.03355601 2 50 C2 50.99 2 51.98 2 53 C1.34 53 0.68 53 0 53 C-0.495 55.475 -0.495 55.475 -1 58 C-2.32 56.68 -3.64 55.36 -5 54 C-4.38125 52.9790625 -4.38125 52.9790625 -3.75 51.9375 C-0.42298014 46.35285952 2.451173 40.98420252 5 35 C5.804375 33.700625 5.804375 33.700625 6.625 32.375 C8.08944368 29.84550637 8.55842961 27.87020754 9 25 C9.32483418 23.66457061 9.6550855 22.33038449 10 21 C10.66 21 11.32 21 12 21 C11.443125 19.9171875 11.443125 19.9171875 10.875 18.8125 C9.79510343 15.34140388 10.48187997 14.20492006 12 11 C12.1450037 8.11932596 12.1450037 8.11932596 11.375 5.9375 C11.25125 5.298125 11.1275 4.65875 11 4 C11.66 3.34 12.32 2.68 13 2 C8.71 1.67 4.42 1.34 0 1 C0 0.67 0 0.34 0 0 Z M-5 56 C-4.01 56.99 -3.02 57.98 -2 59 C-2.66 59.66 -3.32 60.32 -4 61 C-4.99 60.01 -5.98 59.02 -7 58 C-6.34 57.34 -5.68 56.68 -5 56 Z M-10 59 C-5.125 60.75 -5.125 60.75 -4 63 C-5.28965176 64.37562854 -6.62689293 65.70766393 -8 67 C-8.66 67 -9.32 67 -10 67 C-10.33 67.66 -10.66 68.32 -11 69 C-13.4375 71.625 -13.4375 71.625 -16 74 C-16.66 74 -17.32 74 -18 74 C-18.66 74.66 -19.32 75.32 -20 76 C-20.99 76.33 -21.98 76.66 -23 77 C-24.35368596 78.31266518 -25.68799596 79.64567325 -27 81 C-27.66 81.33 -28.32 81.66 -29 82 C-29.99 82.66 -30.98 83.32 -32 84 C-32.99 83.01 -33.98 82.02 -35 81 C-34 78 -34 78 -31.41796875 76.68359375 C-30.29003906 76.12800781 -29.16210938 75.57242188 -28 75 C-25.34259539 73.13693973 -22.83113304 71.10779943 -20.3125 69.0625 C-19.64927734 68.53720703 -18.98605469 68.01191406 -18.30273438 67.47070312 C-15.09327527 64.88826825 -12.25431191 62.50389305 -10 59 Z M-70 68 C-69.67 68 -69.34 68 -69 68 C-69 73.61 -69 79.22 -69 85 C-62.7173708 87.09420973 -62.53662074 87.14685294 -57 85 C-54.67085177 84.63858045 -52.33746522 84.30300475 -50 84 C-47.29293143 83.52228202 -45.8727762 82.92048513 -43.5 81.4375 C-41 80 -41 80 -37 80 C-36.34 80.99 -35.68 81.98 -35 83 C-37.54184196 86.10669573 -40.20900211 86.89429228 -44 88 C-44.99 88.33 -45.98 88.66 -47 89 C-47.99 89 -48.98 89 -50 89 C-53.08191249 89.84052159 -56.14004669 90.72972896 -59.1875 91.6875 C-61.3954119 92.06817447 -62.86474543 91.61991262 -65 91 C-65.99 91 -66.98 91 -68 91 C-68.66 90.67 -69.32 90.34 -70 90 C-70 82.74 -70 75.48 -70 68 Z " fill="#717171" transform="translate(121,46)"/>
<path d="M0 0 C2.475 0.495 2.475 0.495 5 1 C5.76731532 5.34812012 6.1254863 8.72315207 5 13 C4.24989106 16.47437779 4.24989106 16.47437779 4 20 C3.34 20 2.68 20 2 20 C1.814375 21.175625 1.814375 21.175625 1.625 22.375 C1 25 1 25 -1 27 C-3.28529928 30.24570741 -3.28529928 30.24570741 -4 34 C-5.29735507 35.04625409 -6.63266972 36.04701223 -8 37 C-8.98963816 37.98963816 -9.96369305 38.99477993 -10.9375 40 C-13 42 -13 42 -15 43 C-15.66 43.37125 -16.32 43.7425 -17 44.125 C-17.66 44.41375 -18.32 44.7025 -19 45 C-19.66 44.67 -20.32 44.34 -21 44 C-21 44.66 -21 45.32 -21 46 C-25.58045667 47.38277937 -29.24165251 48 -34 48 C-36.15028304 48.94978897 -36.15028304 48.94978897 -38 50 C-39 49 -39 49 -39.11352539 46.40795898 C-39.10828857 45.28204346 -39.10305176 44.15612793 -39.09765625 42.99609375 C-39.09443359 41.78115234 -39.09121094 40.56621094 -39.08789062 39.31445312 C-39.07951172 38.03505859 -39.07113281 36.75566406 -39.0625 35.4375 C-39.05798828 34.15423828 -39.05347656 32.87097656 -39.04882812 31.54882812 C-39.03699545 28.36583978 -39.02051068 25.18294238 -39 22 C-38.67 22 -38.34 22 -38 22 C-38 28.6 -38 35.2 -38 42 C-31.95538485 44.2273355 -31.95538485 44.2273355 -26.8125 42.1875 C-25.97332031 41.80980469 -25.13414063 41.43210938 -24.26953125 41.04296875 C-23.52058594 40.69878906 -22.77164063 40.35460937 -22 40 C-20.515 39.505 -20.515 39.505 -19 39 C-18.34 38.34 -17.68 37.68 -17 37 C-16.01 37 -15.02 37 -14 37 C-13.04231462 35.66608107 -12.10021003 34.31807529 -11.2421875 32.91796875 C-9.24107125 29.82819492 -6.88989296 27.01580565 -4.5859375 24.1484375 C-3.11238031 22.15223933 -2.03956708 20.24451984 -1 18 C-0.62875 17.319375 -0.2575 16.63875 0.125 15.9375 C1.20579336 13.89863452 1.20579336 13.89863452 1 11 C1 9.68 1 8.36 1 7 C0.68197057 5.33034549 0.35015049 3.66321482 0 2 C0 1.34 0 0.68 0 0 Z " fill="#818181" transform="translate(90,47)"/>
</svg>
