<?xml version="1.0" encoding="UTF-8"?>
<svg version="1.1" xmlns="http://www.w3.org/2000/svg" width="1280" height="317">
<path d="M0 0 C27.87136402 27.35902277 43.39776284 65.31998662 44.2578125 104.18945312 C44.53125026 141.67321265 32.80151221 177.57021348 7.90625 205.90234375 C7.18824219 206.74152344 6.47023438 207.58070313 5.73046875 208.4453125 C-19.96783118 237.88652645 -56.7899927 255.5193339 -95.65625 258.65234375 C-97.80128146 258.75425139 -99.9472203 258.8394518 -102.09375 258.90234375 C-102.95097656 258.94230469 -103.80820312 258.98226563 -104.69140625 259.0234375 C-137.88659593 259.89564496 -173.25126315 248.94772226 -199.09375 227.90234375 C-199.61130859 227.48339844 -200.12886719 227.06445312 -200.66210938 226.6328125 C-232.08725587 201.06534278 -253.53117313 165.55397048 -257.86669922 124.78320312 C-261.05228115 84.36399149 -251.59196202 43.90636518 -225.21484375 12.328125 C-197.54386444 -19.31769112 -162.05862817 -40.46677099 -119.40039062 -43.59277344 C-74.35923396 -46.43725294 -32.67620874 -31.11453777 0 0 Z M-165.09375 -7.09765625 C-166.08890625 -6.61425781 -167.0840625 -6.13085938 -168.109375 -5.6328125 C-196.52727469 9.02270434 -218.70886092 35.83223362 -228.8515625 65.96875 C-229.39986283 67.6937054 -229.9391363 69.42155961 -230.46875 71.15234375 C-230.82694824 72.32059692 -230.82694824 72.32059692 -231.19238281 73.51245117 C-240.43223195 105.59451782 -235.45601024 140.95908099 -219.57177734 170.06665039 C-213.69857813 180.37013927 -206.20061109 189.28124147 -198.09375 197.90234375 C-197.5678125 198.49273437 -197.041875 199.083125 -196.5 199.69140625 C-174.41762602 223.46375783 -141.83264729 233.79113804 -110.3984375 236.18359375 C-75.3426343 237.17808462 -43.83875835 222.83691318 -18.09375 199.90234375 C-17.42601562 199.30808594 -16.75828125 198.71382812 -16.0703125 198.1015625 C6.40553388 176.83920079 20.18701788 144.45581843 21.109375 113.72265625 C21.52003288 83.86495138 14.49492651 53.35815751 -5.09375 29.90234375 C-5.946061 28.83914127 -6.79757719 27.7753013 -7.6484375 26.7109375 C-29.22042784 0.11141266 -60.13413686 -16.82976878 -94.21875 -20.41015625 C-118.98654769 -22.90934435 -142.80715006 -17.97332238 -165.09375 -7.09765625 Z " fill="#C30035" transform="translate(991.09375,52.09765625)"/>
<path d="M0 0 C7.92 0 15.84 0 24 0 C28.49973392 11.24933481 28.49973392 11.24933481 30.18457031 16.63037109 C30.75995041 18.45770782 30.75995041 18.45770782 31.34695435 20.32196045 C31.75740168 21.63910167 32.16778993 22.9562613 32.578125 24.2734375 C33.02225805 25.68868989 33.46675723 27.10382743 33.91159058 28.51885986 C34.86403003 31.55104871 35.81409555 34.58396687 36.76226807 37.61749268 C38.2683105 42.43555249 39.77988758 47.25186434 41.29248047 52.06787109 C42.88214865 57.13005849 44.47153696 62.19233249 46.05917358 67.25515747 C51.53619881 84.72035383 57.03873386 102.1774685 62.54919434 119.63214111 C63.84727079 123.74422746 65.14379285 127.85680197 66.43984032 131.9695282 C67.4188245 135.0753091 68.39885451 138.18075929 69.37915421 141.28612518 C69.82879241 142.7111306 70.27803975 144.13625942 70.72683334 145.56153107 C73.72252203 155.07375018 76.81964955 164.5481558 80 174 C82.91972832 164.83430671 85.83605262 155.66753256 88.75 146.5 C88.97263393 145.79959595 89.19526787 145.09919189 89.42464828 144.37756348 C96.45050981 122.27128029 103.41005804 100.14510993 110.3125 78 C118.4279006 51.96335391 126.6642899 25.96699993 135 0 C143.58 0 152.16 0 161 0 C169.17409927 24.05471162 176.8349705 48.25582163 184.40486145 72.50646973 C189.3783365 88.42897356 194.40082886 104.33607268 199.41734314 120.24505615 C201.39717805 126.52382329 203.37661879 132.80271463 205.35574532 139.08170509 C206.01546029 141.17445626 206.67543102 143.26712663 207.33543396 145.35978699 C210.23885642 154.5684544 213.12388494 163.7827717 216 173 C218.05532477 169.91701284 218.94400885 167.41246402 220.04931641 163.88891602 C220.24563597 163.26772699 220.44195553 162.64653797 220.64422417 162.00652504 C221.30121577 159.92371957 221.95134397 157.83883518 222.6015625 155.75390625 C223.07090248 154.26136561 223.54068047 152.76896265 224.01086426 151.27668762 C225.02288663 148.0616011 226.03191325 144.84559531 227.03863525 141.62884521 C228.63407547 136.53116128 230.23616007 131.43558147 231.83935547 126.34033203 C234.08399223 119.20465548 236.32599904 112.0681579 238.56640625 104.93115234 C243.28769986 89.89317145 248.02771033 74.86109623 252.77232933 59.83046055 C254.32047169 54.92580816 255.86686587 50.02060953 257.41178703 45.1149416 C262.1609706 30.03744045 266.92921246 14.97333561 272 0 C279.92 0 287.84 0 296 0 C294.78614097 5.46236566 293.62501855 10.51854191 291.95068359 15.79223633 C291.75433571 16.41439498 291.55798782 17.03655363 291.35569 17.67756557 C290.70689968 19.73022291 290.05268178 21.7811064 289.3984375 23.83203125 C288.92878369 25.31424234 288.45948384 26.79656563 287.99050903 28.2789917 C286.98393273 31.45828048 285.97497355 34.63679915 284.96411133 37.81472778 C283.35178263 42.88364985 281.74481461 47.95426148 280.13867188 53.02514648 C278.17557895 59.22180959 276.21126614 65.41808327 274.24531174 71.61383915 C269.40869208 86.85692555 264.59021763 102.10572701 259.77554226 117.35575676 C258.26433382 122.14236082 256.75239598 126.92873356 255.2397871 131.71489525 C250.66472423 146.19175542 246.09527663 160.67024634 241.56863785 175.16233253 C240.98349855 177.03560189 240.39798752 178.90875512 239.81246948 180.78190613 C238.05571317 186.40288073 236.30208434 192.02479034 234.5546875 197.64868164 C233.95453636 199.57181145 233.35428312 201.4949094 232.75390625 203.41796875 C232.48538345 204.28676666 232.21686066 205.15556458 231.94020081 206.0506897 C230.11348118 211.88651882 230.11348118 211.88651882 229 213 C227.14630389 213.08737645 225.28932459 213.10698153 223.43359375 213.09765625 C222.30888672 213.09443359 221.18417969 213.09121094 220.02539062 213.08789062 C218.84138672 213.07951172 217.65738281 213.07113281 216.4375 213.0625 C215.24962891 213.05798828 214.06175781 213.05347656 212.83789062 213.04882812 C209.89187774 213.03699675 206.94596319 213.02051287 204 213 C201.34661704 206.59052263 198.99288461 200.16798701 196.953125 193.5390625 C196.66904282 192.62828949 196.38496063 191.71751648 196.0922699 190.77914429 C195.4704828 188.78444604 194.85046846 186.78919452 194.23202515 184.79345703 C192.48735393 179.16435903 190.7288107 173.53958629 188.97265625 167.9140625 C188.39563713 166.06376434 188.39563713 166.06376434 187.80696106 164.17608643 C182.73650006 147.9237692 177.59725851 131.69309958 172.46525574 115.46013641 C170.47215811 109.15572512 168.47959727 102.85114424 166.4874382 96.54643631 C165.76742833 94.26806715 165.04712218 91.9897918 164.32681274 89.71151733 C161.82689625 81.80176546 159.3363786 73.88915642 156.85791016 65.97265625 C156.34520801 64.33626038 155.83249757 62.69986711 155.31977844 61.06347656 C154.34601613 57.95534564 153.37450092 54.8465241 152.40422058 51.73730469 C151.96723135 50.34177231 151.5301679 48.94626317 151.09301758 47.55078125 C150.71180252 46.33044189 150.33058746 45.11010254 149.93782043 43.8527832 C149.10744266 41.09361923 149.10744266 41.09361923 148 39 C137.04687237 73.21910122 126.12909472 107.44814831 115.4375 141.75 C115.23125 142.41171204 115.025 143.07342407 114.8125 143.75518799 C114.39846199 145.08360727 113.9844344 146.4120298 113.5704174 147.74045563 C112.5613866 150.97804911 111.55223382 154.21560454 110.54296875 157.453125 C110.15648163 158.69292114 109.76999451 159.93271729 109.37179565 161.21008301 C103.97944983 178.49392288 98.49625754 195.74897267 93 213 C84.42 213 75.84 213 67 213 C60.36110477 193.39451252 54.0418936 173.71133807 47.86889648 153.95507812 C47.15872374 151.68228156 46.44851769 149.40949541 45.73828125 147.13671875 C45.37123581 145.96205048 45.00419037 144.7873822 44.62602234 143.57711792 C39.9878072 128.74534595 35.30168037 113.92869603 30.61846924 99.11108398 C29.06836464 94.20643418 27.51918974 89.30149106 25.97021484 84.39648438 C19.7918175 64.83258565 19.7918175 64.83258565 13.60501385 45.27134418 C11.77409449 39.48638536 9.94584317 33.70058732 8.11862183 27.91445923 C7.37757924 25.56970789 6.63550665 23.22528182 5.8923645 20.88119507 C4.88399604 17.70025118 3.87906195 14.51824286 2.875 11.3359375 C2.57939682 10.40653854 2.28379364 9.47713959 1.97923279 8.51957703 C1.71538284 7.68086563 1.4515329 6.84215424 1.1796875 5.97802734 C0.95007324 5.25239594 0.72045898 4.52676453 0.48388672 3.77914429 C0 2 0 2 0 0 Z " fill="#73797D" transform="translate(14,94)"/>
<path d="M0 0 C0.73863281 0.73476563 1.47726562 1.46953125 2.23828125 2.2265625 C2.86347656 2.81695312 3.48867187 3.40734375 4.1328125 4.015625 C17.96128534 18.1874685 23.3248172 40.92243091 23.36328125 60.0390625 C23.32203125 62.0809375 23.28078125 64.1228125 23.23828125 66.2265625 C15.64828125 66.2265625 8.05828125 66.2265625 0.23828125 66.2265625 C-0.00921875 63.5453125 -0.25671875 60.8640625 -0.51171875 58.1015625 C-2.20069315 42.26509563 -6.39882721 27.17656484 -18.4921875 16.03125 C-39.90905043 -0.99902655 -71.2785856 -2.85540046 -97.55761719 -0.05517578 C-116.98332495 2.42790649 -135.92223182 7.09926598 -149.0078125 22.72265625 C-157.26498356 34.51073342 -158.90563251 48.60646233 -156.57421875 62.4921875 C-153.99364682 74.35289311 -146.84289685 82.07828261 -136.84326172 88.65063477 C-118.33780065 100.15302946 -96.21792954 105.38571227 -75.46875 111.3125 C-7.5823976 130.72830716 -7.5823976 130.72830716 11.23828125 147.2265625 C11.98078125 147.85949219 12.72328125 148.49242187 13.48828125 149.14453125 C24.82641954 159.55929843 30.56965197 174.67699455 31.37890625 189.8659668 C32.09679547 211.55519488 30.03843112 230.59538465 15.5 247.84765625 C-8.07285393 272.64190158 -42.35309851 277.10055184 -74.87890625 278.4140625 C-106.2207442 278.96271612 -137.68918105 272.27470667 -161.76171875 251.2265625 C-162.79232422 250.33904297 -162.79232422 250.33904297 -163.84375 249.43359375 C-180.95084623 233.60868619 -188.40912719 209.79952489 -189.51171875 187.1015625 C-189.59421875 184.5028125 -189.67671875 181.9040625 -189.76171875 179.2265625 C-182.17171875 179.2265625 -174.58171875 179.2265625 -166.76171875 179.2265625 C-166.53097656 180.89203125 -166.30023437 182.5575 -166.0625 184.2734375 C-163.87397463 200.83732487 -163.87397463 200.83732487 -157.76171875 216.2265625 C-157.28605469 217.11085937 -156.81039063 217.99515625 -156.3203125 218.90625 C-146.72398329 235.79378495 -130.99539448 245.12088521 -112.57421875 250.4765625 C-82.14520871 257.98217649 -45.06041564 256.40735394 -16.76171875 242.2265625 C-4.79178047 234.79361696 3.52476129 225.28919347 6.83251953 211.44335938 C7.53163928 207.62386039 7.57836666 203.85073698 7.55078125 199.9765625 C7.54232178 198.72758179 7.54232178 198.72758179 7.53369141 197.45336914 C7.27634311 184.30440016 3.61356121 173.78780649 -5.38671875 164.0390625 C-20.77498187 149.68627129 -44.02753583 144.5763678 -63.74703979 139.15411377 C-69.1277232 137.67161601 -74.49745725 136.15052144 -79.8671875 134.62890625 C-80.91054764 134.33350952 -81.95390778 134.03811279 -83.02888489 133.73376465 C-155.25049295 113.19350591 -155.25049295 113.19350591 -173.76171875 83.2265625 C-182.73414344 65.50162549 -183.80319791 45.51184556 -178.7578125 26.4296875 C-173.01860831 9.07948606 -162.22036453 -3.40244034 -145.96777344 -11.68798828 C-104.60277472 -31.98806855 -35.09104418 -33.46801343 0 0 Z " fill="#C30035" transform="translate(1239.76171875,32.7734375)"/>
<path d="M0 0 C1.39992188 0.62841797 1.39992188 0.62841797 2.828125 1.26953125 C21.80481641 10.67654828 34.75521377 29.24856199 41.6171875 48.78125 C47.68762364 66.85060876 49 83.71165186 49 103 C-2.81 103 -54.62 103 -108 103 C-103.49378536 143.8174781 -103.49378536 143.8174781 -80.1875 176.375 C-65.66121651 187.23639546 -47.76287197 190.46813195 -30.02612305 188.10351562 C-14.83078558 185.7205066 -1.85947268 178.88702553 8 167 C14.62949428 157.88444536 18.32274595 148.57210539 22 138 C29.92 138 37.84 138 46 138 C41.58181831 162.29999929 30.76227764 184.53012619 10 199 C-3.28610088 207.73007874 -19.07644523 212.65437245 -35 213 C-35.92425781 213.03867187 -36.84851563 213.07734375 -37.80078125 213.1171875 C-61.1348561 213.67349657 -83.78712703 207.14540798 -101 191 C-123.65393517 169.24473333 -130.18347038 137.52149302 -131.1875 107.25 C-131.83846028 74.84701848 -126.20153046 40.4618892 -103.49511719 15.85620117 C-92.63370365 4.66907617 -79.99678065 -2.03418467 -65 -6 C-64.08734375 -6.24492188 -63.1746875 -6.48984375 -62.234375 -6.7421875 C-41.78701453 -11.10668257 -18.93746237 -8.56110669 0 0 Z M-88.921875 36.08203125 C-98.59051949 47.6116759 -106 64.73604541 -106 80 C-62.77 80 -19.54 80 25 80 C21.06473674 59.01192928 14.80495686 39.13255847 -3.0078125 25.73828125 C-30.66623642 7.7103206 -66.62238938 11.92425516 -88.921875 36.08203125 Z " fill="#73797D" transform="translate(448,98)"/>
<path d="M0 0 C7.59 0 15.18 0 23 0 C23.33 35.31 23.66 70.62 24 107 C26.31 104.03 28.62 101.06 31 98 C46.57631917 82.3977203 67.99785599 76.80908098 89.4375 76.75 C113.17226215 76.75898704 134.86892149 83.07993365 152.18359375 100.06640625 C165.42697422 113.6059789 172.789042 130.75251532 177 149 C177.16371094 149.69738281 177.32742188 150.39476562 177.49609375 151.11328125 C182.62449577 174.29704904 182.17846513 201.88105494 177 225 C176.86078125 225.66112793 176.7215625 226.32225586 176.578125 227.00341797 C173.19446284 242.73509727 166.71513061 256.2748011 157 269 C156.52175781 269.66257812 156.04351563 270.32515625 155.55078125 271.0078125 C142.91275728 287.3271828 122.69343414 294.35593929 103.08984375 297.4609375 C100.71972408 297.73889131 98.38407644 297.90658644 96 298 C95.19175781 298.03996094 94.38351562 298.07992188 93.55078125 298.12109375 C70.17739539 298.71503629 47.48612247 292.52866517 30.22607422 276.25024414 C16.78286739 263.12054908 7.77418543 246.46655016 4 228 C4 226.35 4 224.7 4 223 C11.59 223 19.18 223 27 223 C27.70125 224.7325 28.4025 226.465 29.125 228.25 C36.52510512 245.8980035 45.0310811 260.3538221 62.94140625 268.75 C80.70839212 276.01109257 99.51173446 275.63622068 117.375 268.75 C122.94811182 266.25145054 127.45169791 263.04587337 132 259 C132.60328125 258.50113281 133.2065625 258.00226563 133.828125 257.48828125 C148.28421003 244.56245747 154.52619539 221.55270698 156 203 C156.19216466 198.04207736 156.24564478 193.08619171 156.25 188.125 C156.25067474 187.43469696 156.25134949 186.74439392 156.25204468 186.03317261 C156.23512611 175.123225 155.71022634 164.61024779 153 154 C152.82307617 153.30390625 152.64615234 152.6078125 152.46386719 151.890625 C147.84604222 134.40828938 139.3289918 119.21932786 124 109 C108.6986726 100.25638434 90.1242558 98.66721758 73 102.125 C57.40470103 106.4182001 45.33286426 115.31474439 37.03613281 129.17431641 C26.5262373 147.69293061 24.51303167 167.06972859 23 188 C15.41 188 7.82 188 0 188 C0 125.96 0 63.92 0 0 Z " fill="#73797D" transform="translate(529,13)"/>
</svg>
