<?xml version="1.0" encoding="UTF-8"?>
<svg version="1.1" xmlns="http://www.w3.org/2000/svg" width="512" height="512">
<path d="M0 0 C6.74874725 3.55036137 12.97182924 10.05740362 15.59765625 17.21875 C16.40736866 22.72479438 15.90750398 26.60939436 13.78515625 31.71875 C11.96893244 36.424127 11.53968927 39.56196445 13.01171875 44.40234375 C14.83632923 48.34508901 17.53042933 50.50058355 21.16015625 52.71875 C25.65911032 53.74123956 30.69844641 53.52633771 34.82421875 51.3203125 C37.54167983 50.04809289 39.7300698 50.00716574 42.72265625 49.96875 C43.71910156 49.94039062 44.71554687 49.91203125 45.7421875 49.8828125 C52.89001457 50.92281693 57.73844312 55.73251618 62.62402344 60.66943359 C63.25420883 61.29436203 63.88439423 61.91929047 64.53367615 62.56315613 C66.59903331 64.61539052 68.65331688 66.67830689 70.70703125 68.7421875 C72.1467179 70.17985146 73.58684948 71.61706998 75.02740479 73.05386353 C78.03798263 76.06002867 81.04309332 79.07152697 84.04443359 82.08691406 C87.88653861 85.94612542 91.74197612 89.79169094 95.60160446 93.63336754 C98.57532657 96.59623665 101.54185104 99.5662294 104.50626373 102.53841019 C105.92500038 103.95914383 107.34595722 105.37766406 108.76918793 106.79389572 C110.75810876 108.77517574 112.73712314 110.76585798 114.71386719 112.75927734 C115.29988205 113.33921951 115.88589691 113.91916168 116.4896698 114.51667786 C120.34923744 118.43660458 123.42463795 122.26404076 124.30859375 127.87109375 C124.30085938 128.66644531 124.293125 129.46179688 124.28515625 130.28125 C124.29289062 131.07402344 124.300625 131.86679688 124.30859375 132.68359375 C123.77285697 136.26042458 122.43100566 139.06466992 120.91015625 142.34375 C121.40942627 142.82730957 121.90869629 143.31086914 122.4230957 143.80908203 C124.6976004 146.02092747 126.96014108 148.24464455 129.22265625 150.46875 C130.00833984 151.22929687 130.79402344 151.98984375 131.60351562 152.7734375 C140.27745568 161.33664641 140.27745568 161.33664641 141.34375 168.08984375 C141.34503906 168.97800781 141.34632813 169.86617187 141.34765625 170.78125 C141.37666016 172.10962891 141.37666016 172.10962891 141.40625 173.46484375 C140.09209487 181.09108259 134.49547234 186.1896986 129.22514343 191.41644287 C128.05748757 192.59217704 128.05748757 192.59217704 126.86624271 193.79166341 C124.26256379 196.40962094 121.64832088 199.01676094 119.03393555 201.62402344 C117.1623351 203.5013274 115.29132381 205.37920247 113.42098999 207.25776672 C108.87095338 211.8249724 104.31279824 216.38399058 99.75154861 220.9399952 C96.04403249 224.6434656 92.33927558 228.34967485 88.63645363 232.05783844 C88.10892265 232.58611784 87.58139167 233.11439724 87.03787491 233.6586851 C85.96613076 234.73196077 84.89439002 235.80523985 83.82265268 236.87852231 C73.7792859 246.93560676 63.72636695 256.98310007 53.67040316 267.02758661 C44.4737426 276.21431102 35.2885766 285.41242938 26.10885086 294.6160731 C16.67732787 304.07198438 7.23843993 313.52048384 -2.20861119 322.96088243 C-7.51006801 328.25884702 -12.80862371 333.55963533 -18.09957314 338.8680954 C-22.60263918 343.38587982 -27.11267668 347.89656085 -31.63181702 352.39826837 C-33.93647012 354.69440697 -36.23670728 356.99467717 -38.53053474 359.30163765 C-41.01918366 361.80344518 -43.51981741 364.29262566 -46.02388 366.7789917 C-46.74393276 367.50864946 -47.46398552 368.23830722 -48.20585805 368.99007583 C-53.41938194 374.1279982 -57.57196763 376.95287488 -65.02734375 377.78125 C-73.93887795 377.35881668 -79.76414671 371.19994357 -85.58984375 365.09375 C-86.316875 364.34867187 -87.04390625 363.60359375 -87.79296875 362.8359375 C-89.56813766 361.01405362 -91.33321193 359.18348303 -93.08984375 357.34375 C-96.99835574 358.92806453 -99.61351731 361.61010095 -102.51171875 364.5703125 C-103.01656799 365.07799164 -103.52141724 365.58567078 -104.04156494 366.10873413 C-105.64576471 367.72408842 -107.24285231 369.34627209 -108.83984375 370.96875 C-109.92922482 372.06816698 -111.01906365 373.16713059 -112.109375 374.265625 C-114.7748626 376.9531102 -117.43399518 379.64674021 -120.08984375 382.34375 C-118.67785845 385.56706998 -116.99093939 387.6582315 -114.46484375 390.09375 C-113.7584375 390.7846875 -113.05203125 391.475625 -112.32421875 392.1875 C-111.21820313 393.25484375 -111.21820313 393.25484375 -110.08984375 394.34375 C-108.6268434 395.75559649 -107.16832061 397.1721011 -105.71484375 398.59375 C-105.06773437 399.21765625 -104.420625 399.8415625 -103.75390625 400.484375 C-100.59074143 404.0188033 -99.78126499 406.96026863 -99.71484375 411.65625 C-99.68648438 412.55988281 -99.658125 413.46351563 -99.62890625 414.39453125 C-100.80159778 421.89776945 -106.25630374 426.9440946 -111.42529297 432.06738281 C-112.15751068 432.80485748 -112.88972839 433.54233215 -113.64413452 434.30215454 C-116.05346949 436.72463512 -118.47354307 439.13604459 -120.89453125 441.546875 C-122.57881819 443.233184 -124.26265967 444.91993803 -125.94607544 446.6071167 C-129.4700983 450.13555538 -132.99947234 453.65852865 -136.53271484 457.17773438 C-141.05779291 461.68570824 -145.56925199 466.20703391 -150.07679558 470.7325325 C-153.54922079 474.21580413 -157.02876695 477.69189157 -160.51050186 481.16585541 C-162.17685208 482.8302067 -163.84098304 484.49678303 -165.50283432 486.16562653 C-167.82657011 488.49699192 -170.15972564 490.81850605 -172.49560547 493.13769531 C-173.17840576 493.8265683 -173.86120605 494.51544128 -174.56469727 495.22518921 C-179.63087793 500.22460816 -184.17989133 503.77060352 -191.58984375 503.78125 C-192.935625 503.81025391 -192.935625 503.81025391 -194.30859375 503.83984375 C-201.58246417 502.54239776 -206.52797834 496.14667192 -211.46484375 491.09375 C-212.20089844 490.34867187 -212.93695313 489.60359375 -213.6953125 488.8359375 C-215.49814422 487.00969238 -217.29611353 485.17892795 -219.08984375 483.34375 C-220.23453125 483.8078125 -220.23453125 483.8078125 -221.40234375 484.28125 C-224.86555101 485.65042496 -227.69001963 486.51681064 -231.40234375 486.59375 C-232.14097656 486.61953125 -232.87960938 486.6453125 -233.640625 486.671875 C-240.28848558 485.78125253 -244.4933718 481.3686706 -248.98144531 476.82446289 C-249.64235168 476.16720718 -250.30325806 475.50995148 -250.98419189 474.83277893 C-253.15707158 472.66797592 -255.31894655 470.49254506 -257.48046875 468.31640625 C-258.99116767 466.80518847 -260.50238554 465.29448929 -262.01409912 463.7842865 C-265.17593257 460.62236346 -268.33254474 457.45534697 -271.48535156 454.28442383 C-275.52770314 450.21935669 -279.58106493 446.16548599 -283.63815689 442.11513615 C-286.75775253 438.99888049 -289.87234181 435.87766098 -292.98534393 432.75481987 C-294.47835655 431.25795769 -295.97272049 429.76244209 -297.46845245 428.2682972 C-299.55588924 426.18123099 -301.63671207 424.08779042 -303.71582031 421.99243164 C-304.33505371 421.37567566 -304.95428711 420.75891968 -305.59228516 420.12347412 C-306.158526 419.55014847 -306.72476685 418.97682281 -307.3081665 418.38612366 C-308.04589483 417.64531602 -308.04589483 417.64531602 -308.79852676 416.88954258 C-312.43111689 412.54108985 -312.43922161 408.55905976 -312.359375 403.0859375 C-312.00393619 399.46973396 -310.58051504 396.63564911 -309.08984375 393.34375 C-308.28077188 388.05366469 -309.05892576 383.78909639 -312.08984375 379.34375 C-316.36413467 375.66587177 -320.48285201 374.02616648 -326.08984375 374.34375 C-328.44686635 375.28655904 -330.78018527 376.29022157 -333.08984375 377.34375 C-338.17537861 378.59670786 -342.97497054 378.87770765 -347.90234375 376.76171875 C-353.49098774 373.13907988 -360.81886528 366.75295592 -363.08984375 360.34375 C-363.42578125 357.79296875 -363.42578125 357.79296875 -363.46484375 355.03125 C-363.50738281 353.67580078 -363.50738281 353.67580078 -363.55078125 352.29296875 C-362.49767299 345.55486082 -357.98302869 340.79807216 -353.30171299 336.18088913 C-352.72454854 335.59966396 -352.14738409 335.01843878 -351.55272982 334.41960073 C-349.62044461 332.47738429 -347.67767291 330.54601789 -345.73475647 328.61444092 C-344.33179808 327.20874146 -342.92949591 325.80238681 -341.52779382 324.39543462 C-337.67668172 320.53373403 -333.81626738 316.68145155 -329.95425999 312.83065128 C-325.78996921 308.67519946 -321.6343253 304.51111599 -317.47758484 300.34811401 C-309.33457924 292.19561701 -301.18354702 284.05119088 -293.02972323 275.90951535 C-286.4046485 269.29407054 -279.78276656 262.67544392 -273.16314507 256.05454254 C-272.69278774 255.58410119 -272.22243042 255.11365983 -271.73781984 254.62896268 C-269.82850108 252.71929167 -267.9191982 250.80960477 -266.00991797 248.89989523 C-248.10162415 230.98763683 -230.18500191 213.0837303 -212.26434143 195.18384526 C-196.34048798 179.27836559 -180.422929 163.36661392 -164.51098633 147.44921875 C-163.48906671 146.4269527 -162.46714693 145.40468682 -161.44522697 144.38242111 C-160.94001041 143.87703355 -160.43479385 143.37164599 -159.9142677 142.85094366 C-157.37110626 140.30692869 -154.82792995 137.7629286 -152.28473759 135.21894455 C-151.7830118 134.71706168 -151.28128601 134.21517881 -150.76435641 133.69808737 C-137.46949925 120.39924128 -124.16991229 107.10512717 -110.86880964 93.81252789 C-109.43784374 92.38246904 -108.00687854 90.95240949 -106.57591489 89.52234838 C-105.62664415 88.57367875 -104.67736966 87.62501288 -103.72809139 86.67635079 C-96.63782961 79.59061166 -89.54983013 72.50261509 -82.46284676 65.41359711 C-74.40641153 57.35504233 -66.34632553 49.30015994 -58.28156883 41.24993274 C-54.16509871 37.14071836 -50.05024464 33.02991947 -45.93967819 28.91479874 C-42.17949005 25.15054581 -38.41474177 21.39091825 -34.64624112 17.63498774 C-33.2811474 16.27283122 -31.91774706 14.90897521 -30.55618501 13.54328856 C-28.70995345 11.69197109 -26.85771925 9.84687629 -25.00381565 8.00324631 C-24.47261666 7.46765083 -23.94141767 6.93205535 -23.39412174 6.38022971 C-16.5278492 -0.41341235 -9.5675213 -3.00438052 0 0 Z M-11.14361858 19.14863586 C-11.9954815 20.00104355 -12.84734442 20.85345123 -13.72502136 21.73168945 C-14.19956688 22.20382055 -14.67411239 22.67595165 -15.16303807 23.16238976 C-16.76217939 24.75586671 -18.35403395 26.35643275 -19.94604492 27.95703125 C-21.08725467 29.0971687 -22.22889708 30.23687321 -23.37094116 31.37617493 C-26.48116948 34.48153983 -29.58508431 37.59314685 -32.68781447 40.70600128 C-35.93640941 43.96336609 -39.19026148 47.21547146 -42.44343567 50.46826172 C-47.91370384 55.93946791 -53.38007849 61.41453998 -58.84399414 66.89208984 C-65.14919714 73.21296882 -71.45956096 79.52865657 -77.77297419 85.84133434 C-84.50009123 92.56777367 -91.2233837 99.29802593 -97.94557786 106.02938461 C-99.8775098 107.96344147 -101.81014553 109.89679263 -103.7429409 111.82998657 C-106.79289105 114.8809476 -109.84025554 117.93446913 -112.88570786 120.98991966 C-113.99941558 122.10652844 -115.11394817 123.22231525 -116.22939873 124.337183 C-117.76184502 125.86913193 -119.29114502 127.40415871 -120.81974792 128.93994141 C-121.67349597 129.7953653 -122.52724401 130.65078918 -123.40686321 131.53213501 C-125.46393598 133.68783333 -127.42084999 135.86333673 -129.36359215 138.11833954 C-133.37178815 142.73252469 -137.65178916 147.04162107 -141.97996521 151.35412598 C-142.85165928 152.22667448 -143.72335336 153.09922297 -144.6214624 153.99821234 C-147.02098149 156.39908575 -149.42270436 158.79771391 -151.82541692 161.19538879 C-154.42359485 163.78922475 -157.01885795 166.38597439 -159.61448669 168.98236084 C-164.10518817 173.47358519 -168.59770844 177.96298346 -173.09148979 182.4511261 C-179.58864065 188.94012979 -186.08300935 195.43191214 -192.576715 201.92436332 C-203.1138839 212.45934674 -213.65328131 222.99209777 -224.1940918 233.5234375 C-234.42996784 243.75012636 -244.66478699 253.97787107 -254.89819336 264.20703125 C-255.52959736 264.83817252 -256.16100136 265.4693138 -256.81153881 266.11958057 C-259.9792847 269.28602137 -263.14700989 272.45248287 -266.3147248 275.61895466 C-292.56989033 301.8637633 -318.82867749 328.10494589 -345.08984375 354.34375 C-343.43984375 356.32375 -341.78984375 358.30375 -340.08984375 360.34375 C-338.93484375 359.84875 -337.77984375 359.35375 -336.58984375 358.84375 C-327.29902064 355.77616385 -315.98327162 355.88103988 -307.12890625 360.16015625 C-299.20367974 364.76043141 -295.05896977 371.42093494 -291.71484375 379.78125 C-290.09739142 389.00072829 -291.48759004 396.45493182 -294.08984375 405.34375 C-293.69196152 405.73941162 -293.29407928 406.13507324 -292.88414001 406.54272461 C-288.71140875 410.69318514 -284.54231871 414.84727831 -280.37524414 419.00341797 C-278.82342487 420.55023501 -277.27070594 422.09615007 -275.71704102 423.64111328 C-273.47299965 425.87290787 -271.23230571 428.10801845 -268.9921875 430.34375 C-268.30648178 431.02429443 -267.62077606 431.70483887 -266.91429138 432.40600586 C-263.0131487 436.3067022 -259.31637417 440.31927692 -255.71238708 444.49536133 C-253.43770949 447.08665624 -251.03951713 449.50620486 -248.59375 451.9375 C-248.11534164 452.41449341 -247.63693329 452.89148682 -247.14402771 453.38293457 C-245.64917861 454.87228695 -244.15085316 456.35808149 -242.65234375 457.84375 C-241.62411395 458.86695139 -240.59611749 459.89038733 -239.56835938 460.9140625 C-237.07820037 463.39332999 -234.58491542 465.86942538 -232.08984375 468.34375 C-227.55597399 464.54680116 -223.22944721 460.62777147 -219.05915928 456.43611336 C-218.49223068 455.8703386 -217.92530208 455.30456385 -217.34119383 454.7216444 C-215.45242968 452.83551567 -213.56723751 450.94585809 -211.68202209 449.05618286 C-210.3108851 447.6854822 -208.93952826 446.31500141 -207.56797117 444.9447211 C-203.80761695 441.18659968 -200.05038253 437.42537275 -196.2936548 433.66362667 C-192.23897313 429.60462326 -188.18139854 425.54851356 -184.12417603 421.49205017 C-177.09777563 414.46617392 -170.07320731 407.43847025 -163.04988289 400.4095192 C-152.89535293 390.24685937 -142.7380601 380.08696466 -132.5800926 369.92774092 C-116.09920827 353.4446684 -99.62055366 336.95936864 -83.14331055 320.47265625 C-67.13797595 304.45813421 -51.13158903 288.44466515 -35.1237793 272.43261719 C-34.63016747 271.93887384 -34.13655565 271.44513049 -33.62798589 270.93642522 C-28.67083732 265.9779581 -23.71366738 261.01951235 -18.75648178 256.06108225 C22.8022954 214.49186771 64.35746859 172.91905163 105.91015625 131.34375 C104.96907522 130.23846117 104.02692596 129.13408182 103.0843401 128.03007603 C102.55979797 127.4149753 102.03525585 126.79987456 101.49481851 126.16613442 C99.16137894 123.48264531 96.71016639 120.92520803 94.23120117 118.37670898 C93.43227196 117.5510569 93.43227196 117.5510569 92.61720276 116.70872498 C87.76296752 111.70154604 82.87614739 106.72610629 77.9791975 101.76072598 C74.69854688 98.43367729 71.42959776 95.09667315 68.18530273 91.73413086 C65.03188804 88.46627281 61.85238414 85.22607773 58.65261269 82.00361824 C57.44179007 80.77501854 56.24052437 79.53692226 55.04930687 78.28930473 C49.09993177 71.46639295 49.09993177 71.46639295 41.20872498 68.04768372 C38.87122202 68.55386469 37.03751375 69.27263547 34.91015625 70.34375 C26.06372214 71.94890107 17.54229484 71.51415914 9.55078125 67.015625 C2.17386599 61.74639982 -2.92621001 55.20766886 -5.08984375 46.34375 C-5.91406614 37.7535211 -5.44358312 30.308881 -2.08984375 22.34375 C-3.7132418 20.63490995 -5.38303428 18.96928283 -7.08984375 17.34375 C-9.2951512 17.12370812 -9.2951512 17.12370812 -11.14361858 19.14863586 Z M104.30615234 156.72070312 C103.68820801 157.34912109 103.07026367 157.97753906 102.43359375 158.625 C101.76328125 159.30175781 101.09296875 159.97851562 100.40234375 160.67578125 C99.35433594 161.74892578 99.35433594 161.74892578 98.28515625 162.84375 C97.57875 163.55917969 96.87234375 164.27460938 96.14453125 165.01171875 C94.39520032 166.78468929 92.65069089 168.56215011 90.91015625 170.34375 C94.39097365 174.4851333 97.92710951 178.48165851 101.78515625 182.28125 C102.95691406 183.43947266 102.95691406 183.43947266 104.15234375 184.62109375 C104.73242188 185.18957031 105.3125 185.75804687 105.91015625 186.34375 C108.84245818 185.02254172 110.89680524 183.59736803 113.14453125 181.3046875 C113.71816406 180.72460938 114.29179687 180.14453125 114.8828125 179.546875 C115.76259766 178.64195312 115.76259766 178.64195312 116.66015625 177.71875 C117.26214844 177.10773438 117.86414063 176.49671875 118.484375 175.8671875 C119.9642093 174.36386376 121.43780301 172.85440144 122.91015625 171.34375 C118.24492774 165.72155154 113.3975622 160.18364204 107.91015625 155.34375 C105.81075194 155.12662939 105.81075194 155.12662939 104.30615234 156.72070312 Z M76.41967773 184.72070312 C75.79649658 185.34912109 75.17331543 185.97753906 74.53125 186.625 C73.85771484 187.30175781 73.18417969 187.97851562 72.49023438 188.67578125 C71.78318359 189.39121094 71.07613281 190.10664063 70.34765625 190.84375 C69.63673828 191.55917969 68.92582031 192.27460938 68.19335938 193.01171875 C66.43005028 194.78686213 64.66910785 196.56429045 62.91015625 198.34375 C64.23136453 201.27605193 65.65653822 203.33039899 67.94921875 205.578125 C68.52929688 206.15175781 69.109375 206.72539062 69.70703125 207.31640625 C70.3103125 207.90292969 70.91359375 208.48945313 71.53515625 209.09375 C72.14617187 209.69574219 72.7571875 210.29773438 73.38671875 210.91796875 C74.89004249 212.39780305 76.39950481 213.87139676 77.91015625 215.34375 C83.57145056 210.64608025 88.76244529 205.59651628 93.91015625 200.34375 C92.59301167 197.42837499 91.17357499 195.3590487 88.90625 193.109375 C88.33068359 192.53574219 87.75511719 191.96210938 87.16210938 191.37109375 C86.56333984 190.78457031 85.96457031 190.19804687 85.34765625 189.59375 C84.74501953 188.99175781 84.14238281 188.38976562 83.52148438 187.76953125 C80.29213288 183.51433259 80.29213288 183.51433259 76.41967773 184.72070312 Z M47.41967773 213.72070312 C46.79649658 214.34912109 46.17331543 214.97753906 45.53125 215.625 C44.85771484 216.30175781 44.18417969 216.97851562 43.49023438 217.67578125 C42.78318359 218.39121094 42.07613281 219.10664063 41.34765625 219.84375 C40.63673828 220.55917969 39.92582031 221.27460938 39.19335938 222.01171875 C37.43005028 223.78686213 35.66910785 225.56429045 33.91015625 227.34375 C35.23136453 230.27605193 36.65653822 232.33039899 38.94921875 234.578125 C39.52929688 235.15175781 40.109375 235.72539062 40.70703125 236.31640625 C41.3103125 236.90292969 41.91359375 237.48945313 42.53515625 238.09375 C43.14617187 238.69574219 43.7571875 239.29773438 44.38671875 239.91796875 C45.89004249 241.39780305 47.39950481 242.87139676 48.91015625 244.34375 C54.57145056 239.64608025 59.76244529 234.59651628 64.91015625 229.34375 C63.59301167 226.42837499 62.17357499 224.3590487 59.90625 222.109375 C59.33068359 221.53574219 58.75511719 220.96210938 58.16210938 220.37109375 C57.56333984 219.78457031 56.96457031 219.19804687 56.34765625 218.59375 C55.74501953 217.99175781 55.14238281 217.38976562 54.52148438 216.76953125 C51.29213288 212.51433259 51.29213288 212.51433259 47.41967773 213.72070312 Z M18.30615234 242.72070312 C17.68820801 243.34912109 17.07026367 243.97753906 16.43359375 244.625 C15.76328125 245.30175781 15.09296875 245.97851562 14.40234375 246.67578125 C13.35433594 247.74892578 13.35433594 247.74892578 12.28515625 248.84375 C11.57875 249.55917969 10.87234375 250.27460938 10.14453125 251.01171875 C8.39520032 252.78468929 6.65069089 254.56215011 4.91015625 256.34375 C8.39097365 260.4851333 11.92710951 264.48165851 15.78515625 268.28125 C16.95691406 269.43947266 16.95691406 269.43947266 18.15234375 270.62109375 C18.73242188 271.18957031 19.3125 271.75804687 19.91015625 272.34375 C22.84245818 271.02254172 24.89680524 269.59736803 27.14453125 267.3046875 C27.71816406 266.72460938 28.29179687 266.14453125 28.8828125 265.546875 C29.76259766 264.64195312 29.76259766 264.64195312 30.66015625 263.71875 C31.26214844 263.10773438 31.86414063 262.49671875 32.484375 261.8671875 C33.9642093 260.36386376 35.43780301 258.85440144 36.91015625 257.34375 C32.24492774 251.72155154 27.3975622 246.18364204 21.91015625 241.34375 C19.81075194 241.12662939 19.81075194 241.12662939 18.30615234 242.72070312 Z M-10.60205078 271.62890625 C-11.46612549 272.50869141 -11.46612549 272.50869141 -12.34765625 273.40625 C-12.97285156 274.03789062 -13.59804688 274.66953125 -14.2421875 275.3203125 C-15.21865234 276.32191406 -15.21865234 276.32191406 -16.21484375 277.34375 C-17.20291016 278.34535156 -17.20291016 278.34535156 -18.2109375 279.3671875 C-19.84178699 281.02167249 -21.46780225 282.68063616 -23.08984375 284.34375 C-21.76863547 287.27605193 -20.34346178 289.33039899 -18.05078125 291.578125 C-17.47070312 292.15175781 -16.890625 292.72539062 -16.29296875 293.31640625 C-15.6896875 293.90292969 -15.08640625 294.48945313 -14.46484375 295.09375 C-13.85382813 295.69574219 -13.2428125 296.29773438 -12.61328125 296.91796875 C-11.10995751 298.39780305 -9.60049519 299.87139676 -8.08984375 301.34375 C-2.42854944 296.64608025 2.76244529 291.59651628 7.91015625 286.34375 C3.24492774 280.72155154 -1.6024378 275.18364204 -7.08984375 270.34375 C-9.16660234 270.12788862 -9.16660234 270.12788862 -10.60205078 271.62890625 Z M-38.58032227 299.72070312 C-39.20350342 300.34912109 -39.82668457 300.97753906 -40.46875 301.625 C-41.14228516 302.30175781 -41.81582031 302.97851562 -42.50976562 303.67578125 C-43.21681641 304.39121094 -43.92386719 305.10664063 -44.65234375 305.84375 C-45.36326172 306.55917969 -46.07417969 307.27460938 -46.80664062 308.01171875 C-48.56994972 309.78686213 -50.33089215 311.56429045 -52.08984375 313.34375 C-50.76863547 316.27605193 -49.34346178 318.33039899 -47.05078125 320.578125 C-46.47070312 321.15175781 -45.890625 321.72539062 -45.29296875 322.31640625 C-44.6896875 322.90292969 -44.08640625 323.48945313 -43.46484375 324.09375 C-42.85382813 324.69574219 -42.2428125 325.29773438 -41.61328125 325.91796875 C-40.10995751 327.39780305 -38.60049519 328.87139676 -37.08984375 330.34375 C-31.42854944 325.64608025 -26.23755471 320.59651628 -21.08984375 315.34375 C-22.40698833 312.42837499 -23.82642501 310.3590487 -26.09375 308.109375 C-26.66931641 307.53574219 -27.24488281 306.96210938 -27.83789062 306.37109375 C-28.43666016 305.78457031 -29.03542969 305.19804687 -29.65234375 304.59375 C-30.25498047 303.99175781 -30.85761719 303.38976562 -31.47851562 302.76953125 C-34.70786712 298.51433259 -34.70786712 298.51433259 -38.58032227 299.72070312 Z M-67.69384766 328.72070312 C-68.31179199 329.34912109 -68.92973633 329.97753906 -69.56640625 330.625 C-70.23671875 331.30175781 -70.90703125 331.97851562 -71.59765625 332.67578125 C-72.64566406 333.74892578 -72.64566406 333.74892578 -73.71484375 334.84375 C-74.42125 335.55917969 -75.12765625 336.27460938 -75.85546875 337.01171875 C-77.60479968 338.78468929 -79.34930911 340.56215011 -81.08984375 342.34375 C-77.46052802 346.67258834 -73.74017591 350.81031422 -69.71484375 354.78125 C-68.84085937 355.64621094 -67.966875 356.51117188 -67.06640625 357.40234375 C-66.08800781 358.36333984 -66.08800781 358.36333984 -65.08984375 359.34375 C-59.12724186 354.52292294 -54.12304581 349.11880724 -49.08984375 343.34375 C-53.75507226 337.72155154 -58.6024378 332.18364204 -64.08984375 327.34375 C-66.18924806 327.12662939 -66.18924806 327.12662939 -67.69384766 328.72070312 Z M-136.69384766 397.72070312 C-137.31179199 398.34912109 -137.92973633 398.97753906 -138.56640625 399.625 C-139.23671875 400.30175781 -139.90703125 400.97851562 -140.59765625 401.67578125 C-141.64566406 402.74892578 -141.64566406 402.74892578 -142.71484375 403.84375 C-143.42125 404.55917969 -144.12765625 405.27460938 -144.85546875 406.01171875 C-146.60479968 407.78468929 -148.34930911 409.56215011 -150.08984375 411.34375 C-146.60902635 415.4851333 -143.07289049 419.48165851 -139.21484375 423.28125 C-138.04308594 424.43947266 -138.04308594 424.43947266 -136.84765625 425.62109375 C-136.26757812 426.18957031 -135.6875 426.75804687 -135.08984375 427.34375 C-132.15754182 426.02254172 -130.10319476 424.59736803 -127.85546875 422.3046875 C-127.28183594 421.72460938 -126.70820313 421.14453125 -126.1171875 420.546875 C-125.23740234 419.64195312 -125.23740234 419.64195312 -124.33984375 418.71875 C-123.73785156 418.10773438 -123.13585937 417.49671875 -122.515625 416.8671875 C-121.0357907 415.36386376 -119.56219699 413.85440144 -118.08984375 412.34375 C-122.75507226 406.72155154 -127.6024378 401.18364204 -133.08984375 396.34375 C-135.18924806 396.12662939 -135.18924806 396.12662939 -136.69384766 397.72070312 Z M-165.60205078 426.62890625 C-166.46612549 427.50869141 -166.46612549 427.50869141 -167.34765625 428.40625 C-167.97285156 429.03789062 -168.59804687 429.66953125 -169.2421875 430.3203125 C-170.21865234 431.32191406 -170.21865234 431.32191406 -171.21484375 432.34375 C-172.20291016 433.34535156 -172.20291016 433.34535156 -173.2109375 434.3671875 C-174.84178699 436.02167249 -176.46780225 437.68063616 -178.08984375 439.34375 C-176.76863547 442.27605193 -175.34346178 444.33039899 -173.05078125 446.578125 C-172.47070312 447.15175781 -171.890625 447.72539062 -171.29296875 448.31640625 C-170.6896875 448.90292969 -170.08640625 449.48945313 -169.46484375 450.09375 C-168.85382813 450.69574219 -168.2428125 451.29773438 -167.61328125 451.91796875 C-166.10995751 453.39780305 -164.60049519 454.87139676 -163.08984375 456.34375 C-157.42854944 451.64608025 -152.23755471 446.59651628 -147.08984375 441.34375 C-151.75507226 435.72155154 -156.6024378 430.18364204 -162.08984375 425.34375 C-164.16660234 425.12788862 -164.16660234 425.12788862 -165.60205078 426.62890625 Z M-193.58032227 454.72070312 C-194.20350342 455.34912109 -194.82668457 455.97753906 -195.46875 456.625 C-196.14228516 457.30175781 -196.81582031 457.97851562 -197.50976562 458.67578125 C-198.21681641 459.39121094 -198.92386719 460.10664063 -199.65234375 460.84375 C-200.36326172 461.55917969 -201.07417969 462.27460938 -201.80664062 463.01171875 C-203.56994972 464.78686213 -205.33089215 466.56429045 -207.08984375 468.34375 C-205.76863547 471.27605193 -204.34346178 473.33039899 -202.05078125 475.578125 C-201.47070312 476.15175781 -200.890625 476.72539062 -200.29296875 477.31640625 C-199.6896875 477.90292969 -199.08640625 478.48945313 -198.46484375 479.09375 C-197.85382813 479.69574219 -197.2428125 480.29773438 -196.61328125 480.91796875 C-195.10995751 482.39780305 -193.60049519 483.87139676 -192.08984375 485.34375 C-187.92620799 483.73777621 -185.2813967 480.68824496 -182.33984375 477.46875 C-181.83324219 476.93894531 -181.32664063 476.40914063 -180.8046875 475.86328125 C-177.89822001 472.70612115 -177.08984375 471.79599286 -177.08984375 467.34375 C-178.34339435 465.52445307 -178.34339435 465.52445307 -180.1171875 463.890625 C-180.74431641 463.271875 -181.37144531 462.653125 -182.01757812 462.015625 C-183.01241211 461.06429688 -183.01241211 461.06429688 -184.02734375 460.09375 C-184.68669922 459.4440625 -185.34605469 458.794375 -186.02539062 458.125 C-189.46879355 453.74765563 -189.46879355 453.74765563 -193.58032227 454.72070312 Z " fill="#000000" transform="translate(367.08984375,8.65625)"/>
<path d="M0 0 C0.91523438 -0.01675781 1.83046875 -0.03351563 2.7734375 -0.05078125 C9.20335115 0.76837213 13.36593335 4.61527884 17.76635742 9.06567383 C18.34762894 9.64168839 18.92890045 10.21770294 19.52778625 10.81117249 C21.43626746 12.70651131 23.33363593 14.61254021 25.23046875 16.51953125 C26.55948328 17.8465234 27.88894274 19.17307006 29.21882629 20.49919128 C31.99999172 23.27594114 34.77567748 26.0580257 37.54760742 28.84399414 C41.09492958 32.40840741 44.65555006 35.95918265 48.22039318 39.50606251 C50.96679448 42.24160541 53.70598835 44.98427568 56.44307899 47.7291317 C57.75296362 49.04101263 59.06506681 50.35068233 60.37944603 51.65806007 C62.2176113 53.4885773 64.04583749 55.32848913 65.87182617 57.17114258 C66.41265839 57.7059021 66.9534906 58.24066162 67.51071167 58.79162598 C71.92000609 63.27547593 75.04075012 67.76344653 75.125 74.1875 C75.17140625 75.35925781 75.17140625 75.35925781 75.21875 76.5546875 C73.40465962 84.98065994 66.25451307 91.12329361 60.37890625 96.95703125 C59.49017319 97.84863449 58.60144012 98.74023773 57.68577576 99.65885925 C55.81419113 101.53247679 53.93991568 103.40280735 52.06030273 105.26831055 C49.66173733 107.64973605 47.2769631 110.04444901 44.89593601 112.44339466 C42.60589359 114.7469254 40.30440688 117.03895214 38.00390625 119.33203125 C37.15373428 120.18827591 36.30356232 121.04452057 35.42762756 121.92671204 C30.19479483 127.09801711 25.50826292 131.71075229 17.75 131.8125 C16.57824219 131.85890625 16.57824219 131.85890625 15.3828125 131.90625 C5.45703311 129.769255 -1.85992249 120.26449304 -8.73828125 113.34765625 C-10.01959758 112.06836383 -11.3013587 110.78951677 -12.58354187 109.51109314 C-15.25859366 106.84044657 -17.92818879 104.16449448 -20.59399414 101.48461914 C-24.00448153 98.05700643 -27.42830916 94.6430864 -30.85632038 91.23301029 C-33.50149271 88.59869484 -36.13945822 85.95725574 -38.77532005 83.31362724 C-40.03496581 82.05198656 -41.29682646 80.79255312 -42.5609684 79.53541756 C-44.32707489 77.77696058 -46.08322968 76.00911832 -47.8371582 74.23852539 C-48.61564117 73.46915146 -48.61564117 73.46915146 -49.40985107 72.68423462 C-54.03771567 67.97490804 -56.80289848 63.49515871 -56.8125 56.8125 C-56.83183594 55.9153125 -56.85117188 55.018125 -56.87109375 54.09375 C-55.4842825 46.31887119 -48.0465481 40.69465201 -42.71875 35.390625 C-41.76968685 34.44021254 -40.8209206 33.48950354 -39.87243652 32.53851318 C-37.89198451 30.5551253 -35.90799264 28.5753679 -33.92138672 26.59814453 C-31.37924754 24.06743024 -28.84623566 21.52779961 -26.31578827 18.98540115 C-24.3617039 17.0240832 -22.40287304 15.06756162 -20.44258118 13.11244965 C-19.05289402 11.72473825 -17.66722132 10.33301042 -16.28161621 8.94122314 C-15.01009705 7.67916046 -15.01009705 7.67916046 -13.71289062 6.39160156 C-12.96994751 5.65024963 -12.22700439 4.90889771 -11.46154785 4.14508057 C-7.74156512 0.87788108 -4.91794766 0.02066365 0 0 Z M-1.93788147 19.75512695 C-2.61072678 20.43019287 -3.28357208 21.10525879 -3.97680664 21.80078125 C-4.73751968 22.56156982 -5.49823273 23.3223584 -6.28199768 24.10620117 C-7.10804001 24.93740479 -7.93408234 25.7686084 -8.78515625 26.625 C-9.62719101 27.46844971 -10.46922577 28.31189941 -11.33677673 29.1809082 C-14.03936106 31.88911323 -16.73845742 34.60076562 -19.4375 37.3125 C-21.26344406 39.14345639 -23.08961292 40.97418862 -24.91601562 42.8046875 C-29.40496053 47.30468886 -33.89104261 51.80752919 -38.375 56.3125 C-33.00306094 62.84128733 -27.05714926 68.75829862 -21.0703125 74.71484375 C-19.98007635 75.80321139 -18.89006331 76.89180257 -17.80026245 77.98060608 C-14.95188206 80.82519535 -12.10050996 83.66676681 -9.24847412 86.50769043 C-6.33048 89.41539665 -3.41536696 92.32598824 -0.5 95.23632812 C5.20553984 100.93119081 10.91424794 106.62286412 16.625 112.3125 C19.76238154 110.92169475 21.87975281 109.30227796 24.29199219 106.87255859 C24.99241638 106.17198334 25.69284058 105.47140808 26.41448975 104.74960327 C27.53189545 103.61671371 27.53189545 103.61671371 28.671875 102.4609375 C29.44307678 101.68690582 30.21427856 100.91287415 31.0088501 100.11538696 C33.46896856 97.64408077 35.92203848 95.16590817 38.375 92.6875 C40.04250894 91.00995948 41.71047232 89.33287055 43.37890625 87.65625 C47.4662237 83.54689081 51.54777696 79.43187353 55.625 75.3125 C54.02865184 71.41344736 51.50850223 68.94856671 48.54858398 65.99316406 C48.03295898 65.47564072 47.51733398 64.95811737 46.98608398 64.4249115 C45.28592992 62.72106203 43.57869984 61.02450336 41.87109375 59.328125 C40.68771018 58.14593367 39.50469618 56.9633723 38.32203674 55.78045654 C35.84610962 53.30609196 33.36686269 50.83511975 30.88500977 48.36669922 C27.69633206 45.19505744 24.51432351 42.01682587 21.33453274 38.83627701 C18.89426478 36.39628022 16.45140518 33.95889259 14.00764656 31.52239227 C12.83281267 30.35075 11.6585918 29.17849273 10.48498344 28.00562286 C8.84983366 26.3726288 7.21144176 24.74296303 5.57202148 23.11425781 C4.6387352 22.18478333 3.70544891 21.25530884 2.74388123 20.29766846 C0.35090735 17.75401591 0.35090735 17.75401591 -1.93788147 19.75512695 Z " fill="#000000" transform="translate(129.375,294.6875)"/>
<path d="M0 0 C0.72058594 -0.01675781 1.44117188 -0.03351563 2.18359375 -0.05078125 C8.37989081 0.89545131 12.53303871 4.84015819 16.7956543 9.12573242 C17.68219193 9.99956573 17.68219193 9.99956573 18.5866394 10.89105225 C20.52784353 12.80895858 22.45774659 14.7377656 24.38671875 16.66796875 C25.73829999 18.01244421 27.09017739 19.356622 28.44233704 20.70051575 C31.27088548 23.51563599 34.09344624 26.33660406 36.91235352 29.16137695 C40.51681652 32.77173491 44.13918613 36.36351311 47.76674175 39.95064831 C50.56274841 42.7207455 53.3471406 45.50229575 56.12839699 48.28719521 C57.45884331 49.61595341 58.79325567 50.94075328 60.13175011 52.26140404 C62.00588101 54.11328209 63.86330875 55.98050925 65.7175293 57.85229492 C66.26771225 58.38921463 66.8178952 58.92613434 67.38475037 59.47932434 C71.69043133 63.87987451 74.24603665 68.57247854 74.77734375 74.8515625 C74.64005859 75.88410156 74.64005859 75.88410156 74.5 76.9375 C74.42652344 77.63101563 74.35304688 78.32453125 74.27734375 79.0390625 C71.98747945 86.32158175 65.65116027 91.53018823 60.4140625 96.76171875 C59.52391449 97.65615189 58.63376648 98.55058502 57.71664429 99.47212219 C55.8380064 101.3564892 53.95737467 103.23858675 52.07324219 105.11743164 C49.66854399 107.51632704 47.2754271 109.92641919 44.88524818 112.33977032 C42.58930967 114.65404009 40.28232583 116.95724394 37.9765625 119.26171875 C37.12325348 120.12423752 36.26994446 120.98675629 35.39077759 121.87541199 C29.88813087 127.3356124 25.26409102 131.7381871 17.125 131.75 C16.23941406 131.76933594 15.35382813 131.78867187 14.44140625 131.80859375 C7.79401943 130.66311461 3.06521327 126.25575214 -1.50878906 121.61352539 C-2.07069946 121.05526566 -2.63260986 120.49700592 -3.21154785 119.92182922 C-5.04952422 118.09189679 -6.87650597 116.25142004 -8.703125 114.41015625 C-9.98579639 113.12696562 -11.26898767 111.84429449 -12.55267334 110.56211853 C-15.23355454 107.88114788 -17.90921775 105.19511048 -20.58105469 102.50512695 C-24.00112488 99.06233644 -27.43219444 95.63076531 -30.86700821 92.20269108 C-33.51483661 89.55820772 -36.15764516 86.90875443 -38.79888153 84.25768852 C-40.06220288 82.99052674 -41.32686493 81.7247001 -42.59290314 80.46025276 C-44.361521 78.69200682 -46.1234849 76.91738663 -47.88378906 75.14086914 C-48.40434875 74.62278687 -48.92490845 74.10470459 -49.46124268 73.57092285 C-53.67333889 69.29691769 -56.67367222 65.49668471 -57.3125 59.4375 C-57.41304687 58.63570313 -57.51359375 57.83390625 -57.6171875 57.0078125 C-57.01994867 48.04923012 -50.50080085 42.80342477 -44.4765625 36.85546875 C-43.4832596 35.86201066 -42.49062508 34.86788388 -41.49862671 33.87312317 C-39.42528569 31.79840298 -37.34519109 29.73078417 -35.25976562 27.66821289 C-32.59253225 25.02941831 -29.94121224 22.37528516 -27.29453468 19.71589184 C-25.24977768 17.66416907 -23.19770019 15.61989882 -21.14326096 13.57787514 C-20.16283841 12.60195442 -19.18447936 11.62395598 -18.20827103 10.64381981 C-16.84232254 9.27494914 -15.46555819 7.9168973 -14.08837891 6.55932617 C-13.30911041 5.78546066 -12.52984192 5.01159515 -11.72695923 4.21427917 C-8.11622434 1.21495936 -4.66186758 0.02492977 0 0 Z M-2.00038147 19.75512695 C-2.67322678 20.43019287 -3.34607208 21.10525879 -4.03930664 21.80078125 C-4.80001968 22.56156982 -5.56073273 23.3223584 -6.34449768 24.10620117 C-7.17054001 24.93740479 -7.99658234 25.7686084 -8.84765625 26.625 C-9.68969101 27.46844971 -10.53172577 28.31189941 -11.39927673 29.1809082 C-14.10186106 31.88911323 -16.80095742 34.60076562 -19.5 37.3125 C-21.32594406 39.14345639 -23.15211292 40.97418862 -24.97851562 42.8046875 C-29.46746053 47.30468886 -33.95354261 51.80752919 -38.4375 56.3125 C-36.86226254 60.16558766 -34.26002556 62.75993914 -31.34521484 65.63183594 C-30.82798355 66.14935928 -30.31075226 66.66688263 -29.77784729 67.2000885 C-28.07274329 68.90380289 -26.36067232 70.60032978 -24.6484375 72.296875 C-23.462587 73.47899407 -22.27717826 74.66155645 -21.0921936 75.84454346 C-17.97632362 78.95278728 -14.85449366 82.05497737 -11.73138428 85.15594482 C-8.54386381 88.32298502 -5.3620168 91.49571387 -2.1796875 94.66796875 C4.06216976 100.88839403 10.31033485 107.10243537 16.5625 113.3125 C21.71079744 109.00622744 26.52002072 104.48938069 31.24609375 99.7265625 C31.94646255 99.02477875 32.64683136 98.322995 33.36842346 97.59994507 C35.58133027 95.38148864 37.79071416 93.15956185 40 90.9375 C41.50953314 89.42294534 43.01929657 87.90862015 44.52929688 86.39453125 C48.20969702 82.70316901 51.88721957 79.00895931 55.5625 75.3125 C53.96615184 71.41344736 51.44600223 68.94856671 48.48608398 65.99316406 C47.97045898 65.47564072 47.45483398 64.95811737 46.92358398 64.4249115 C45.22342992 62.72106203 43.51619984 61.02450336 41.80859375 59.328125 C40.62521018 58.14593367 39.44219618 56.9633723 38.25953674 55.78045654 C35.78360962 53.30609196 33.30436269 50.83511975 30.82250977 48.36669922 C27.63383206 45.19505744 24.45182351 42.01682587 21.27203274 38.83627701 C18.83176478 36.39628022 16.38890518 33.95889259 13.94514656 31.52239227 C12.77031267 30.35075 11.5960918 29.17849273 10.42248344 28.00562286 C8.78733366 26.3726288 7.14894176 24.74296303 5.50952148 23.11425781 C4.5762352 22.18478333 3.64294891 21.25530884 2.68138123 20.29766846 C0.28840735 17.75401591 0.28840735 17.75401591 -2.00038147 19.75512695 Z " fill="#000000" transform="translate(204.4375,219.6875)"/>
<path d="M0 0 C0.598125 0.06445312 1.19625 0.12890625 1.8125 0.1953125 C7.88958398 2.08354931 12.45761812 5.88999361 16.85595703 10.34277344 C17.39514771 10.87670715 17.93433838 11.41064087 18.48986816 11.96075439 C20.25342233 13.71120749 22.00589288 15.47228351 23.7578125 17.234375 C24.99092631 18.46546494 26.22448491 19.69610951 27.45846558 20.92633057 C30.03694801 23.50040276 32.60995951 26.0797893 35.17919922 28.66308594 C38.45838988 31.95934936 41.75084227 35.24198311 45.04754829 38.52071762 C47.59588446 41.05816548 50.13697341 43.60277467 52.67599106 46.14954376 C53.88653828 47.36207998 55.09928407 48.57242565 56.31433487 49.78044891 C71.05481159 64.45433618 71.05481159 64.45433618 72.62890625 71.81640625 C72.59603516 73.11384766 72.59603516 73.11384766 72.5625 74.4375 C72.56378906 75.30503906 72.56507813 76.17257813 72.56640625 77.06640625 C70.88818091 85.38808916 64.4424072 90.88553569 58.66796875 96.640625 C57.75799637 97.55583923 56.84802399 98.47105347 55.91047668 99.41400146 C53.99144288 101.34192671 52.06689778 103.2641326 50.13842773 105.18261719 C47.67875536 107.63078577 45.23532764 110.09448097 42.796031 112.56293106 C40.45022446 114.93158035 38.08960404 117.28525058 35.73046875 119.640625 C34.86044724 120.52188049 33.99042572 121.40313599 33.09403992 122.31109619 C27.57627327 127.76630556 23.42276729 131.40113208 15.5 132.25 C8.01578272 131.44811958 3.63847754 128.10447555 -1.4543457 122.92236328 C-2.05687668 122.32523529 -2.65940765 121.7281073 -3.28019714 121.11288452 C-5.2554031 119.1501155 -7.21581883 117.17329436 -9.17578125 115.1953125 C-10.55038342 113.82086541 -11.92565333 112.44708584 -13.30155945 111.07394409 C-16.17659525 108.20028994 -19.04455537 105.31981031 -21.9074707 102.43408203 C-25.57532888 98.73780032 -29.25858696 95.05733278 -32.94703388 91.38160896 C-35.78623881 88.54936103 -38.61802303 85.70978801 -41.44753075 82.86785507 C-42.80303519 81.50783921 -44.16062918 80.14990262 -45.5203495 78.79410172 C-47.41857205 76.89879249 -49.30679605 74.99405459 -51.19262695 73.08642578 C-52.03496384 72.25084137 -52.03496384 72.25084137 -52.89431763 71.39837646 C-57.0988586 67.11286415 -59.28022596 63.47274508 -59.3125 57.4375 C-59.32925781 56.71691406 -59.34601563 55.99632812 -59.36328125 55.25390625 C-58.53022566 49.79873578 -55.42294395 45.9193005 -51.63964844 42.09472656 C-50.76153503 41.20070129 -49.88342163 40.30667603 -48.97869873 39.38555908 C-48.02278958 38.4283827 -47.06633478 37.47175099 -46.109375 36.515625 C-45.12122968 35.52036972 -44.1333805 34.52482033 -43.14581299 33.5289917 C-41.0797333 31.4495053 -39.00785714 29.37600573 -36.93212891 27.30615234 C-34.28119989 24.661124 -31.64899361 21.9982882 -29.02129745 19.33020401 C-26.98812165 17.27110617 -24.94350872 15.2236648 -22.89551544 13.17931366 C-21.92039466 12.2025067 -20.94922237 11.22174056 -19.98223114 10.23688507 C-8.7593134 -1.1704255 -8.7593134 -1.1704255 0 0 Z M-4.68313599 20.31762695 C-5.68907303 21.33022583 -5.68907303 21.33022583 -6.71533203 22.36328125 C-7.47596954 23.12406982 -8.23660706 23.8848584 -9.02029419 24.66870117 C-10.25161575 25.91550659 -10.25161575 25.91550659 -11.5078125 27.1875 C-12.34843231 28.03094971 -13.18905212 28.87439941 -14.05514526 29.7434082 C-16.74980598 32.44930071 -19.43744576 35.16205079 -22.125 37.875 C-23.94615773 39.70618364 -25.76776644 41.53691887 -27.58984375 43.3671875 C-32.06514987 47.86459376 -36.53470456 52.36765559 -41 56.875 C-35.62806094 63.40378733 -29.68214926 69.32079862 -23.6953125 75.27734375 C-22.60507635 76.36571139 -21.51506331 77.45430257 -20.42526245 78.54310608 C-17.57688206 81.38769535 -14.72550996 84.22926681 -11.87347412 87.07019043 C-8.95548 89.97789665 -6.04036696 92.88848824 -3.125 95.79882812 C2.58053984 101.49369081 8.28924794 107.18536412 14 112.875 C17.18259851 111.46990901 19.31348466 109.80578658 21.75878906 107.34326172 C22.47923401 106.62266571 23.19967896 105.9020697 23.94195557 105.15963745 C24.70876648 104.38250397 25.47557739 103.60537048 26.265625 102.8046875 C27.45572174 101.61034592 27.45572174 101.61034592 28.66986084 100.39187622 C31.20130703 97.84924052 33.72570803 95.29973652 36.25 92.75 C37.96568617 91.02428247 39.68182662 89.29901645 41.3984375 87.57421875 C45.60424248 83.34636968 49.80428507 79.11286131 54 74.875 C48.63404477 68.3659572 42.72246515 62.43365719 36.765625 56.47265625 C35.68032749 55.38414068 34.59510329 54.295552 33.50994873 53.20689392 C31.24912104 50.94011334 28.98627168 48.67537343 26.72216797 46.41186523 C23.81617721 43.50597687 20.91717205 40.59322295 18.01980972 37.67873478 C15.78765545 35.43549857 13.55100822 33.19678495 11.31304169 30.95934868 C10.24128425 29.88640909 9.17115282 28.81184279 8.10266876 27.73564339 C6.61641677 26.23965146 5.12403331 24.75006016 3.62988281 23.26196289 C2.78194153 22.41259659 1.93400024 21.56323029 1.06036377 20.68812561 C-1.45535706 18.47428457 -2.10997329 18.11215224 -4.68313599 20.31762695 Z " fill="#000000" transform="translate(281,145.125)"/>
<path d="M0 0 C1.33804688 -0.05994141 1.33804688 -0.05994141 2.703125 -0.12109375 C12.76566913 1.72370601 20.19460408 11.42681287 27.11328125 18.3671875 C28.39467185 19.64401058 29.67643171 20.92046318 30.95854187 22.19656372 C33.63374046 24.86286203 36.30323452 27.53471508 38.96899414 30.21044922 C42.37779063 33.63075882 45.80222967 37.03491057 49.23132038 40.43485832 C51.87813234 43.06329175 54.51553744 45.70100874 57.15032005 48.34149551 C58.40908151 49.60040984 59.67093125 50.85624443 60.9359684 52.10885239 C62.7044862 53.86242318 64.4596849 55.62836282 66.2121582 57.39794922 C66.73114685 57.9072699 67.2501355 58.41659058 67.78485107 58.94134521 C72.34249194 63.59224865 74.46523457 67.87461109 75.1875 74.375 C74.71777571 83.88192813 67.73359735 90.03114067 61.3828125 96.30078125 C60.47046844 97.21458054 59.55812439 98.12837982 58.61813354 99.06987 C56.69619348 100.99318669 54.76753824 102.90941185 52.83349609 104.82055664 C50.36479845 107.26081166 47.91204359 109.71638811 45.46389961 112.17724323 C43.11117364 114.53862319 40.74663667 116.88800996 38.3828125 119.23828125 C37.5076297 120.11639969 36.6324469 120.99451813 35.73074341 121.89924622 C26.66169937 130.82927845 26.66169937 130.82927845 20.1875 131.8359375 C19.383125 131.82820312 18.57875 131.82046875 17.75 131.8125 C16.945625 131.82023438 16.14125 131.82796875 15.3125 131.8359375 C8.92381259 130.84257452 4.85024012 126.97097773 0.50097656 122.56079102 C-0.09165482 121.9718103 -0.68428619 121.38282959 -1.2948761 120.77600098 C-3.24050009 118.83844495 -5.1751093 116.89029626 -7.109375 114.94140625 C-8.46313214 113.58713015 -9.81740848 112.23337287 -11.17218018 110.88011169 C-14.00446751 108.04773481 -16.83153005 105.21027596 -19.65478516 102.36889648 C-23.27339914 98.72756364 -26.90301629 95.09744192 -30.53637314 91.47082615 C-33.33170825 88.67883199 -36.1220327 85.88187457 -38.91077423 83.08329582 C-40.24748683 81.7427356 -41.58554867 80.40351935 -42.92498016 79.06567574 C-44.79449122 77.19653553 -46.65737071 75.3210307 -48.51855469 73.44360352 C-49.07233292 72.8923027 -49.62611115 72.34100189 -50.19667053 71.772995 C-54.82837936 67.07660635 -56.54118817 64.15011015 -56.625 57.5625 C-56.65335937 56.55445313 -56.68171875 55.54640625 -56.7109375 54.5078125 C-55.5156365 46.54589231 -48.0179344 40.91560826 -42.59375 35.515625 C-41.64468685 34.56521254 -40.6959206 33.61450354 -39.74743652 32.66351318 C-37.76698451 30.6801253 -35.78299264 28.7003679 -33.79638672 26.72314453 C-31.25424754 24.19243024 -28.72123566 21.65279961 -26.19078827 19.11040115 C-24.2367039 17.1490832 -22.27787304 15.19256162 -20.31758118 13.23744965 C-18.92789402 11.84973825 -17.54222132 10.45801042 -16.15661621 9.06622314 C-14.88509705 7.80416046 -14.88509705 7.80416046 -13.58789062 6.51660156 C-12.84494751 5.77524963 -12.10200439 5.03389771 -11.33654785 4.27008057 C-7.69912248 1.07538985 -4.81208854 0.11686501 0 0 Z M-1.81288147 19.88012695 C-2.48572678 20.55519287 -3.15857208 21.23025879 -3.85180664 21.92578125 C-4.61251968 22.68656982 -5.37323273 23.4473584 -6.15699768 24.23120117 C-6.98304001 25.06240479 -7.80908234 25.8936084 -8.66015625 26.75 C-9.50219101 27.59344971 -10.34422577 28.43689941 -11.21177673 29.3059082 C-13.91436106 32.01411323 -16.61345742 34.72576562 -19.3125 37.4375 C-21.13844406 39.26845639 -22.96461292 41.09918862 -24.79101562 42.9296875 C-29.27996053 47.42968886 -33.76604261 51.93252919 -38.25 56.4375 C-36.67476254 60.29058766 -34.07252556 62.88493914 -31.15771484 65.75683594 C-30.64048355 66.27435928 -30.12325226 66.79188263 -29.59034729 67.3250885 C-27.88524329 69.02880289 -26.17317232 70.72532978 -24.4609375 72.421875 C-23.275087 73.60399407 -22.08967826 74.78655645 -20.9046936 75.96954346 C-17.78882362 79.07778728 -14.66699366 82.17997737 -11.54388428 85.28094482 C-8.35636381 88.44798502 -5.1745168 91.62071387 -1.9921875 94.79296875 C4.24966976 101.01339403 10.49783485 107.22743537 16.75 113.4375 C21.89829744 109.13122744 26.70752072 104.61438069 31.43359375 99.8515625 C32.13396255 99.14977875 32.83433136 98.447995 33.55592346 97.72494507 C35.76883027 95.50648864 37.97821416 93.28456185 40.1875 91.0625 C41.69703314 89.54794534 43.20679657 88.03362015 44.71679688 86.51953125 C48.39719702 82.82816901 52.07471957 79.13395931 55.75 75.4375 C54.15365184 71.53844736 51.63350223 69.07356671 48.67358398 66.11816406 C48.15795898 65.60064072 47.64233398 65.08311737 47.11108398 64.5499115 C45.41092992 62.84606203 43.70369984 61.14950336 41.99609375 59.453125 C40.81271018 58.27093367 39.62969618 57.0883723 38.44703674 55.90545654 C35.97110962 53.43109196 33.49186269 50.96011975 31.01000977 48.49169922 C27.82133206 45.32005744 24.63932351 42.14182587 21.45953274 38.96127701 C19.01926478 36.52128022 16.57640518 34.08389259 14.13264656 31.64739227 C12.95781267 30.47575 11.7835918 29.30349273 10.60998344 28.13062286 C8.97483366 26.4976288 7.33644176 24.86796303 5.69702148 23.23925781 C4.7637352 22.30978333 3.83044891 21.38030884 2.86888123 20.42266846 C0.47590735 17.87901591 0.47590735 17.87901591 -1.81288147 19.88012695 Z " fill="#000000" transform="translate(353.25,70.5625)"/>
</svg>
